<svg xmlns="http://www.w3.org/2000/svg" viewBox="0 0 512 512" width="512" height="512">
  <g fill="#000000" fill-rule="evenodd">
    <path d="M 382.00,437.50 L 381.00,437.99 L 380.00,437.99 L 379.00,438.00 L 378.00,438.00 L 377.00,438.00 L 376.00,438.00 L 375.00,438.00 L 374.00,438.00 L 373.00,438.00 L 372.00,438.00 L 371.00,438.00 L 370.00,438.00 L 369.00,437.99 L 368.00,437.98 L 367.02,437.00 L 367.00,437.00 L 366.00,437.00 L 365.00,436.99 L 364.00,436.96 L 363.04,436.00 L 363.00,436.00 L 362.00,435.99 L 361.00,435.75 L 360.25,435.00 L 360.00,435.00 L 359.00,434.94 L 358.06,434.00 L 358.00,434.00 L 357.00,433.93 L 356.07,433.00 L 356.00,432.99 L 355.00,432.88 L 354.12,432.00 L 354.00,431.99 L 353.00,431.50 L 352.50,431.00 L 352.00,430.99 L 351.01,430.00 L 351.00,430.00 L 350.00,429.99 L 349.01,429.00 L 349.00,429.00 L 348.00,428.99 L 347.01,428.00 L 347.00,428.00 L 346.00,427.98 L 345.02,427.00 L 345.00,427.00 L 344.00,426.98 L 343.02,426.00 L 343.00,426.00 L 342.00,425.97 L 341.03,425.00 L 341.00,425.00 L 340.00,424.96 L 339.04,424.00 L 339.00,424.00 L 338.00,423.92 L 337.08,423.00 L 337.00,423.00 L 336.00,422.88 L 335.12,422.00 L 335.00,421.99 L 334.00,421.50 L 333.50,421.00 L 333.00,420.99 L 332.01,420.00 L 332.00,420.00 L 331.00,419.99 L 330.01,419.00 L 330.00,419.00 L 329.00,418.99 L 328.01,418.00 L 328.00,418.00 L 327.00,417.99 L 326.01,417.00 L 326.00,417.00 L 325.00,416.98 L 324.02,416.00 L 324.00,416.00 L 323.00,415.97 L 322.03,415.00 L 322.00,415.00 L 321.00,414.97 L 320.03,414.00 L 320.00,414.00 L 319.00,413.92 L 318.08,413.00 L 318.00,413.00 L 317.00,412.90 L 316.10,412.00 L 316.00,411.99 L 315.00,411.75 L 314.25,411.00 L 314.00,410.99 L 313.01,410.00 L 313.00,410.00 L 312.00,409.99 L 311.01,409.00 L 311.00,409.00 L 310.00,408.99 L 309.01,408.00 L 309.00,408.00 L 308.00,407.99 L 307.01,407.00 L 307.00,407.00 L 306.00,406.98 L 305.02,406.00 L 305.00,406.00 L 304.00,405.98 L 303.02,405.00 L 303.00,405.00 L 302.00,404.97 L 301.03,404.00 L 301.00,404.00 L 300.00,403.95 L 299.05,403.00 L 299.00,403.00 L 298.00,402.92 L 297.08,402.00 L 297.00,401.99 L 296.00,401.75 L 295.25,401.00 L 295.00,400.99 L 294.00,400.50 L 293.50,400.00 L 293.00,399.99 L 292.01,399.00 L 292.00,399.00 L 291.00,398.99 L 290.01,398.00 L 290.00,398.00 L 289.00,397.99 L 288.01,397.00 L 288.00,397.00 L 287.00,396.98 L 286.02,396.00 L 286.00,396.00 L 285.00,395.98 L 284.02,395.00 L 284.00,395.00 L 283.00,394.97 L 282.03,394.00 L 282.00,394.00 L 281.00,393.95 L 280.05,393.00 L 280.00,393.00 L 279.00,392.90 L 278.10,392.00 L 278.00,391.99 L 277.00,391.75 L 276.25,391.00 L 276.00,390.99 L 275.01,390.00 L 275.00,390.00 L 274.00,389.99 L 273.01,389.00 L 273.00,389.00 L 272.00,388.99 L 271.01,388.00 L 271.00,388.00 L 270.00,387.99 L 269.01,387.00 L 269.00,387.00 L 268.00,386.98 L 267.02,386.00 L 267.00,386.00 L 266.00,385.98 L 265.02,385.00 L 265.00,385.00 L 264.00,384.97 L 263.03,384.00 L 263.00,384.00 L 262.00,383.95 L 261.05,383.00 L 261.00,383.00 L 260.00,382.92 L 259.08,382.00 L 259.00,382.00 L 258.00,381.93 L 257.07,381.00 L 257.00,381.00 L 256.00,381.00 L 255.00,381.00 L 254.00,381.00 L 253.93,381.00 L 253.00,381.93 L 252.00,382.00 L 251.94,382.00 L 251.00,382.94 L 250.00,383.00 L 249.97,383.00 L 249.00,383.97 L 248.00,384.00 L 247.98,384.00 L 247.00,384.98 L 246.00,385.00 L 245.98,385.00 L 245.00,385.98 L 244.00,386.00 L 243.99,386.00 L 243.00,386.99 L 242.00,387.00 L 241.99,387.00 L 241.00,387.99 L 240.00,388.00 L 239.99,388.00 L 239.00,388.99 L 238.00,389.00 L 237.99,389.00 L 237.00,389.99 L 236.75,390.00 L 236.00,390.75 L 235.00,390.99 L 234.88,391.00 L 234.00,391.88 L 233.00,392.00 L 232.94,392.00 L 232.00,392.94 L 231.00,393.00 L 230.96,393.00 L 230.00,393.96 L 229.00,394.00 L 228.98,394.00 L 228.00,394.98 L 227.00,395.00 L 226.98,395.00 L 226.00,395.98 L 225.00,396.00 L 224.99,396.00 L 224.00,396.99 L 223.00,397.00 L 222.99,397.00 L 222.00,397.99 L 221.00,398.00 L 220.99,398.00 L 220.00,398.99 L 219.00,399.00 L 218.99,399.00 L 218.00,399.99 L 217.50,400.00 L 217.00,400.50 L 216.00,400.99 L 215.83,401.00 L 215.00,401.83 L 214.00,402.00 L 213.92,402.00 L 213.00,402.92 L 212.00,403.00 L 211.95,403.00 L 211.00,403.95 L 210.00,404.00 L 209.97,404.00 L 209.00,404.97 L 208.00,405.00 L 207.98,405.00 L 207.00,405.98 L 206.00,406.00 L 205.98,406.00 L 205.00,406.98 L 204.00,407.00 L 203.99,407.00 L 203.00,407.99 L 202.00,408.00 L 201.99,408.00 L 201.00,408.99 L 200.00,409.00 L 199.99,409.00 L 199.00,409.99 L 198.00,410.00 L 197.99,410.00 L 197.00,410.99 L 196.83,411.00 L 196.00,411.83 L 195.00,412.00 L 194.90,412.00 L 194.00,412.90 L 193.00,413.00 L 192.95,413.00 L 192.00,413.95 L 191.00,414.00 L 190.97,414.00 L 190.00,414.97 L 189.00,415.00 L 188.98,415.00 L 188.00,415.98 L 187.00,416.00 L 186.98,416.00 L 186.00,416.98 L 185.00,417.00 L 184.99,417.00 L 184.00,417.99 L 183.00,418.00 L 182.99,418.00 L 182.00,418.99 L 181.00,419.00 L 180.99,419.00 L 180.00,419.99 L 179.00,420.00 L 178.99,420.00 L 178.00,420.99 L 177.83,421.00 L 177.00,421.83 L 176.00,422.00 L 175.90,422.00 L 175.00,422.90 L 174.00,423.00 L 173.94,423.00 L 173.00,423.94 L 172.00,424.00 L 171.96,424.00 L 171.00,424.96 L 170.00,425.00 L 169.98,425.00 L 169.00,425.98 L 168.00,426.00 L 167.98,426.00 L 167.00,426.98 L 166.00,427.00 L 165.99,427.00 L 165.00,427.99 L 164.00,428.00 L 163.99,428.00 L 163.00,428.99 L 162.00,429.00 L 161.99,429.00 L 161.00,429.99 L 160.00,430.00 L 159.99,430.00 L 159.00,430.99 L 158.50,431.00 L 158.00,431.50 L 157.00,431.99 L 156.88,432.00 L 156.00,432.88 L 155.00,432.99 L 154.94,433.00 L 154.00,433.94 L 153.00,434.00 L 152.95,434.00 L 152.00,434.95 L 151.00,435.00 L 150.88,435.00 L 150.00,435.88 L 149.00,435.99 L 148.00,436.00 L 147.97,436.00 L 147.00,436.97 L 146.00,436.99 L 145.00,437.00 L 144.00,437.00 L 143.98,437.00 L 143.00,437.98 L 142.00,437.99 L 141.00,438.00 L 140.00,438.00 L 139.00,438.00 L 138.00,438.00 L 137.00,438.00 L 136.00,438.00 L 135.00,438.00 L 134.00,438.00 L 133.00,438.00 L 132.00,438.00 L 131.00,437.99 L 130.00,437.99 L 129.00,437.75 L 128.25,437.00 L 128.00,437.00 L 127.00,437.00 L 126.00,436.98 L 125.02,436.00 L 125.00,436.00 L 124.00,435.99 L 123.00,435.94 L 122.06,435.00 L 122.00,435.00 L 121.00,434.97 L 120.03,434.00 L 120.00,434.00 L 119.00,433.93 L 118.07,433.00 L 118.00,432.99 L 117.01,432.00 L 117.00,432.00 L 116.00,431.94 L 115.06,431.00 L 115.00,430.98 L 114.02,430.00 L 114.00,429.99 L 113.01,429.00 L 113.00,428.99 L 112.01,428.00 L 112.00,427.99 L 111.01,427.00 L 111.00,426.99 L 110.01,426.00 L 110.00,425.99 L 109.01,425.00 L 109.00,424.96 L 108.04,424.00 L 108.00,423.00 L 108.00,422.99 L 107.01,422.00 L 107.00,421.96 L 106.04,421.00 L 106.00,420.00 L 106.00,419.98 L 105.02,419.00 L 105.00,418.00 L 105.00,417.97 L 104.03,417.00 L 104.00,416.00 L 104.00,415.00 L 104.00,414.99 L 103.01,414.00 L 103.00,413.00 L 103.00,412.00 L 103.00,411.90 L 102.10,411.00 L 102.01,410.00 L 102.01,409.00 L 102.00,408.00 L 102.00,407.00 L 102.00,406.00 L 102.00,405.00 L 102.00,404.00 L 102.00,403.00 L 102.00,402.00 L 102.00,401.00 L 102.00,400.00 L 102.00,399.00 L 102.01,398.00 L 102.01,397.00 L 102.06,396.00 L 103.00,395.06 L 103.00,395.00 L 103.00,394.00 L 103.00,393.00 L 103.01,392.00 L 103.01,391.00 L 103.10,390.00 L 104.00,389.10 L 104.00,389.00 L 104.00,388.00 L 104.00,387.00 L 104.01,386.00 L 104.01,385.00 L 104.25,384.00 L 105.00,383.25 L 105.00,383.00 L 105.00,382.00 L 105.00,381.00 L 105.01,380.00 L 105.02,379.00 L 106.00,378.02 L 106.00,378.00 L 106.00,377.00 L 106.00,376.00 L 106.00,375.00 L 106.01,374.00 L 106.03,373.00 L 107.00,372.02 L 107.00,372.00 L 107.00,371.00 L 107.00,370.00 L 107.00,369.00 L 107.01,368.00 L 107.04,367.00 L 108.00,366.04 L 108.00,366.00 L 108.00,365.00 L 108.00,364.00 L 108.01,363.00 L 108.01,362.00 L 108.06,361.00 L 109.00,360.06 L 109.00,360.00 L 109.00,359.00 L 109.00,358.00 L 109.01,357.00 L 109.01,356.00 L 109.10,355.00 L 110.00,354.10 L 110.00,354.00 L 110.00,353.00 L 110.00,352.00 L 110.01,351.00 L 110.01,350.00 L 110.25,349.00 L 111.00,348.25 L 111.00,348.00 L 111.00,347.00 L 111.00,346.00 L 111.01,345.00 L 111.02,344.00 L 112.00,343.02 L 112.00,343.00 L 112.00,342.00 L 112.00,341.00 L 112.00,340.00 L 112.01,339.00 L 112.03,338.00 L 113.00,337.02 L 113.00,337.00 L 113.00,336.00 L 113.00,335.00 L 113.00,334.00 L 113.01,333.00 L 113.04,332.00 L 114.00,331.04 L 114.00,331.00 L 114.00,330.00 L 114.00,329.00 L 114.01,328.00 L 114.01,327.00 L 114.06,326.00 L 115.00,325.06 L 115.00,325.00 L 115.00,324.00 L 115.00,323.00 L 115.01,322.00 L 115.01,321.00 L 115.12,320.00 L 116.00,319.12 L 116.00,319.00 L 116.00,318.00 L 116.00,317.00 L 116.01,316.00 L 116.01,315.00 L 116.25,314.00 L 117.00,313.25 L 117.00,313.00 L 117.00,312.00 L 117.00,311.00 L 117.01,310.00 L 117.02,309.00 L 118.00,308.02 L 118.00,308.00 L 118.00,307.00 L 118.00,306.00 L 118.00,305.00 L 118.01,304.00 L 118.03,303.00 L 119.00,302.02 L 119.00,302.00 L 119.00,301.00 L 119.00,300.00 L 119.00,299.00 L 119.01,298.00 L 119.04,297.00 L 120.00,296.04 L 120.00,296.00 L 120.00,295.00 L 120.00,294.00 L 120.01,293.00 L 120.01,292.00 L 120.06,291.00 L 121.00,290.06 L 121.00,290.00 L 121.00,289.00 L 121.00,288.00 L 121.01,287.00 L 121.01,286.00 L 121.01,285.00 L 121.01,284.00 L 121.00,283.00 L 121.00,282.83 L 120.17,282.00 L 120.00,281.00 L 120.00,280.99 L 119.01,280.00 L 119.00,280.00 L 118.00,279.00 L 118.00,279.00 L 117.00,278.00 L 117.00,278.00 L 116.00,277.00 L 116.00,277.00 L 115.00,276.00 L 115.00,276.00 L 114.00,275.00 L 114.00,275.00 L 113.00,274.00 L 113.00,274.00 L 112.00,273.00 L 112.00,273.00 L 111.00,272.50 L 110.50,272.00 L 110.00,271.75 L 109.25,271.00 L 109.00,270.75 L 108.25,270.00 L 108.00,269.83 L 107.17,269.00 L 107.00,268.83 L 106.17,268.00 L 106.00,267.92 L 105.08,267.00 L 105.00,266.92 L 104.08,266.00 L 104.00,265.93 L 103.07,265.00 L 103.00,264.95 L 102.05,264.00 L 102.00,263.95 L 101.05,263.00 L 101.00,262.97 L 100.03,262.00 L 100.00,261.97 L 99.03,261.00 L 99.00,260.97 L 98.03,260.00 L 98.00,259.98 L 97.02,259.00 L 97.00,258.98 L 96.02,258.00 L 96.00,257.98 L 95.02,257.00 L 95.00,256.98 L 94.02,256.00 L 94.00,255.98 L 93.02,255.00 L 93.00,254.99 L 92.01,254.00 L 92.00,253.99 L 91.01,253.00 L 91.00,252.99 L 90.01,252.00 L 90.00,251.99 L 89.01,251.00 L 89.00,250.99 L 88.01,250.00 L 88.00,249.99 L 87.01,249.00 L 87.00,248.99 L 86.01,248.00 L 86.00,247.99 L 85.01,247.00 L 85.00,246.99 L 84.01,246.00 L 84.00,245.99 L 83.01,245.00 L 83.00,244.99 L 82.01,244.00 L 82.00,243.99 L 81.01,243.00 L 81.00,242.99 L 80.01,242.00 L 80.00,241.99 L 79.01,241.00 L 79.00,241.00 L 78.00,240.00 L 78.00,240.00 L 77.00,239.00 L 77.00,239.00 L 76.00,238.00 L 76.00,238.00 L 75.00,237.00 L 75.00,237.00 L 74.00,236.00 L 74.00,236.00 L 73.00,235.00 L 73.00,235.00 L 72.00,234.50 L 71.50,234.00 L 71.00,233.50 L 70.50,233.00 L 70.00,232.50 L 69.50,232.00 L 69.00,231.83 L 68.17,231.00 L 68.00,230.83 L 67.17,230.00 L 67.00,229.90 L 66.10,229.00 L 66.00,228.92 L 65.08,228.00 L 65.00,227.93 L 64.07,227.00 L 64.00,226.95 L 63.05,226.00 L 63.00,225.95 L 62.05,225.00 L 62.00,224.95 L 61.05,224.00 L 61.00,223.97 L 60.03,223.00 L 60.00,222.97 L 59.03,222.00 L 59.00,221.98 L 58.02,221.00 L 58.00,220.98 L 57.02,220.00 L 57.00,219.98 L 56.02,219.00 L 56.00,218.98 L 55.02,218.00 L 55.00,217.98 L 54.02,217.00 L 54.00,216.98 L 53.02,216.00 L 53.00,215.99 L 52.01,215.00 L 52.00,214.99 L 51.01,214.00 L 51.00,213.99 L 50.01,213.00 L 50.00,212.99 L 49.01,212.00 L 49.00,211.99 L 48.01,211.00 L 48.00,210.99 L 47.01,210.00 L 47.00,209.99 L 46.01,209.00 L 46.00,208.99 L 45.01,208.00 L 45.00,207.99 L 44.01,207.00 L 44.00,206.99 L 43.01,206.00 L 43.00,205.99 L 42.01,205.00 L 42.00,204.99 L 41.01,204.00 L 41.00,203.99 L 40.01,203.00 L 40.00,203.00 L 39.01,202.00 L 39.00,202.00 L 38.00,201.00 L 38.00,200.99 L 37.01,200.00 L 37.00,199.99 L 36.01,199.00 L 36.00,198.99 L 35.01,198.00 L 35.00,197.93 L 34.07,197.00 L 34.00,196.00 L 34.00,195.99 L 33.01,195.00 L 33.00,194.88 L 32.12,194.00 L 32.00,193.00 L 32.00,192.94 L 31.06,192.00 L 31.00,191.00 L 31.00,190.00 L 31.00,189.99 L 30.01,189.00 L 30.00,188.00 L 30.00,187.75 L 29.25,187.00 L 29.01,186.00 L 29.00,185.00 L 29.00,184.00 L 29.00,183.00 L 29.00,182.97 L 28.03,182.00 L 28.01,181.00 L 28.01,180.00 L 28.01,179.00 L 28.00,178.00 L 28.00,177.00 L 28.00,176.00 L 28.01,175.00 L 28.01,174.00 L 28.01,173.00 L 28.06,172.00 L 29.00,171.06 L 29.00,171.00 L 29.00,170.00 L 29.00,169.00 L 29.01,168.00 L 30.00,167.01 L 30.00,167.00 L 30.00,166.00 L 30.01,165.00 L 31.00,164.01 L 31.00,164.00 L 31.01,163.00 L 31.12,162.00 L 32.00,161.12 L 32.01,161.00 L 32.25,160.00 L 33.00,159.25 L 33.01,159.00 L 34.00,158.01 L 34.00,158.00 L 34.07,157.00 L 35.00,156.07 L 35.01,156.00 L 36.00,155.01 L 36.01,155.00 L 37.00,154.01 L 37.01,154.00 L 38.00,153.01 L 38.00,153.00 L 39.00,152.00 L 39.01,152.00 L 40.00,151.01 L 40.01,151.00 L 41.00,150.01 L 41.02,150.00 L 42.00,149.02 L 42.12,149.00 L 43.00,148.12 L 44.00,148.00 L 44.01,148.00 L 45.00,147.01 L 46.00,147.00 L 46.01,147.00 L 47.00,146.01 L 48.00,146.00 L 48.01,146.00 L 49.00,145.01 L 50.00,145.00 L 50.02,145.00 L 51.00,144.02 L 52.00,144.00 L 53.00,144.00 L 53.04,144.00 L 54.00,143.04 L 55.00,143.01 L 56.00,143.00 L 57.00,143.00 L 58.00,143.00 L 58.08,143.00 L 59.00,142.08 L 60.00,142.01 L 61.00,142.01 L 62.00,142.00 L 63.00,142.00 L 64.00,142.00 L 65.00,142.00 L 65.07,142.00 L 66.00,141.07 L 67.00,141.01 L 68.00,141.01 L 69.00,141.00 L 70.00,141.00 L 71.00,141.00 L 72.00,141.00 L 72.06,141.00 L 73.00,140.06 L 74.00,140.01 L 75.00,140.01 L 76.00,140.00 L 77.00,140.00 L 78.00,140.00 L 79.00,140.00 L 79.03,140.00 L 80.00,139.03 L 81.00,139.01 L 82.00,139.01 L 83.00,139.00 L 84.00,139.00 L 85.00,139.00 L 86.00,139.00 L 86.02,139.00 L 87.00,138.02 L 88.00,138.01 L 89.00,138.01 L 90.00,138.00 L 91.00,138.00 L 92.00,138.00 L 93.00,138.00 L 93.03,138.00 L 94.00,137.03 L 95.00,137.01 L 96.00,137.01 L 97.00,137.00 L 98.00,137.00 L 99.00,137.00 L 100.00,137.00 L 100.03,137.00 L 101.00,136.03 L 102.00,136.01 L 103.00,136.00 L 104.00,136.00 L 105.00,136.00 L 106.00,136.00 L 106.12,136.00 L 107.00,135.12 L 108.00,135.01 L 109.00,135.01 L 110.00,135.00 L 111.00,135.00 L 112.00,135.00 L 113.00,135.00 L 113.10,135.00 L 114.00,134.10 L 115.00,134.01 L 116.00,134.01 L 117.00,134.00 L 118.00,134.00 L 119.00,134.00 L 120.00,134.00 L 120.08,134.00 L 121.00,133.08 L 122.00,133.01 L 123.00,133.01 L 124.00,133.00 L 125.00,133.00 L 126.00,133.00 L 127.00,133.00 L 127.07,133.00 L 128.00,132.07 L 129.00,132.01 L 130.00,132.01 L 131.00,132.00 L 132.00,132.00 L 133.00,132.00 L 134.00,132.00 L 134.03,132.00 L 135.00,131.03 L 136.00,131.01 L 137.00,131.01 L 138.00,131.00 L 139.00,131.00 L 140.00,131.00 L 141.00,131.00 L 141.03,131.00 L 142.00,130.03 L 143.00,130.01 L 144.00,130.01 L 145.00,130.00 L 146.00,130.00 L 147.00,130.00 L 148.00,130.00 L 148.03,130.00 L 149.00,129.03 L 150.00,129.01 L 151.00,129.01 L 152.00,129.00 L 153.00,129.00 L 154.00,129.00 L 155.00,129.00 L 155.03,129.00 L 156.00,128.03 L 157.00,128.01 L 158.00,128.00 L 159.00,128.00 L 160.00,128.00 L 161.00,128.00 L 162.00,128.00 L 162.02,128.00 L 163.00,127.02 L 164.00,127.01 L 165.00,127.00 L 166.00,127.00 L 167.00,127.00 L 168.00,127.00 L 168.10,127.00 L 169.00,126.10 L 170.00,126.01 L 171.00,126.00 L 171.25,126.00 L 172.00,125.25 L 173.00,125.00 L 173.01,125.00 L 174.00,124.01 L 174.00,124.00 L 174.02,123.00 L 175.00,122.02 L 175.00,122.00 L 175.02,121.00 L 176.00,120.02 L 176.00,120.00 L 176.02,119.00 L 177.00,118.02 L 177.00,118.00 L 177.02,117.00 L 178.00,116.02 L 178.00,116.00 L 178.02,115.00 L 179.00,114.02 L 179.00,114.00 L 179.01,113.00 L 180.00,112.01 L 180.00,112.00 L 180.01,111.00 L 181.00,110.01 L 181.00,110.00 L 181.01,109.00 L 182.00,108.01 L 182.00,108.00 L 182.01,107.00 L 183.00,106.01 L 183.00,106.00 L 183.01,105.00 L 184.00,104.01 L 184.00,104.00 L 184.01,103.00 L 185.00,102.01 L 185.00,102.00 L 185.01,101.00 L 186.00,100.01 L 186.00,100.00 L 186.01,99.00 L 187.00,98.01 L 187.00,98.00 L 187.01,97.00 L 188.00,96.01 L 188.00,96.00 L 188.01,95.00 L 189.00,94.01 L 189.00,94.00 L 189.01,93.00 L 190.00,92.01 L 190.00,92.00 L 190.01,91.00 L 191.00,90.01 L 191.00,90.00 L 191.01,89.00 L 192.00,88.01 L 192.00,88.00 L 192.01,87.00 L 193.00,86.01 L 193.00,86.00 L 193.01,85.00 L 194.00,84.01 L 194.00,84.00 L 194.01,83.00 L 194.50,82.00 L 195.00,81.50 L 195.01,81.00 L 195.50,80.00 L 196.00,79.50 L 196.01,79.00 L 196.25,78.00 L 197.00,77.25 L 197.01,77.00 L 197.17,76.00 L 198.00,75.17 L 198.01,75.00 L 198.17,74.00 L 199.00,73.17 L 199.01,73.00 L 199.10,72.00 L 200.00,71.10 L 200.00,71.00 L 200.10,70.00 L 201.00,69.10 L 201.00,69.00 L 201.08,68.00 L 202.00,67.08 L 202.00,67.00 L 202.07,66.00 L 203.00,65.07 L 203.00,65.00 L 203.06,64.00 L 204.00,63.06 L 204.00,63.00 L 204.05,62.00 L 205.00,61.05 L 205.00,61.00 L 205.05,60.00 L 206.00,59.05 L 206.00,59.00 L 206.04,58.00 L 207.00,57.04 L 207.00,57.00 L 207.04,56.00 L 208.00,55.04 L 208.00,55.00 L 208.03,54.00 L 209.00,53.03 L 209.00,53.00 L 209.03,52.00 L 210.00,51.03 L 210.00,51.00 L 210.03,50.00 L 211.00,49.03 L 211.00,49.00 L 211.03,48.00 L 212.00,47.02 L 212.00,47.00 L 212.02,46.00 L 213.00,45.02 L 213.00,45.00 L 213.02,44.00 L 214.00,43.02 L 214.00,43.00 L 214.02,42.00 L 215.00,41.02 L 215.00,41.00 L 215.02,40.00 L 216.00,39.02 L 216.00,39.00 L 216.02,38.00 L 217.00,37.02 L 217.00,37.00 L 217.01,36.00 L 218.00,35.01 L 218.00,35.00 L 218.01,34.00 L 219.00,33.01 L 219.00,33.00 L 219.01,32.00 L 220.00,31.01 L 220.00,31.00 L 220.01,30.00 L 221.00,29.01 L 221.00,29.00 L 221.01,28.00 L 222.00,27.01 L 222.00,27.00 L 222.01,26.00 L 223.00,25.01 L 223.00,25.00 L 223.01,24.00 L 224.00,23.01 L 224.00,23.00 L 224.01,22.00 L 225.00,21.01 L 225.00,21.00 L 225.01,20.00 L 226.00,19.01 L 226.00,19.00 L 226.07,18.00 L 227.00,17.07 L 227.01,17.00 L 228.00,16.01 L 228.00,16.00 L 229.00,15.00 L 229.00,15.00 L 229.17,14.00 L 230.00,13.17 L 230.10,13.00 L 231.00,12.10 L 231.12,12.00 L 232.00,11.12 L 232.50,11.00 L 233.00,10.50 L 234.00,10.00 L 234.01,10.00 L 235.00,9.01 L 235.02,9.00 L 236.00,8.02 L 237.00,8.00 L 237.01,8.00 L 238.00,7.01 L 238.06,7.00 L 239.00,6.06 L 240.00,6.00 L 240.05,6.00 L 241.00,5.05 L 242.00,5.00 L 243.00,5.00 L 243.01,5.00 L 244.00,4.01 L 245.00,4.00 L 246.00,4.00 L 246.02,4.00 L 247.00,3.02 L 248.00,3.01 L 249.00,3.00 L 250.00,3.00 L 251.00,3.00 L 251.17,3.00 L 252.00,2.17 L 253.00,2.02 L 254.00,2.01 L 255.00,2.01 L 256.00,2.01 L 257.00,2.01 L 258.00,2.02 L 259.00,2.25 L 259.75,3.00 L 260.00,3.00 L 261.00,3.00 L 262.00,3.00 L 263.00,3.01 L 264.00,3.02 L 264.98,4.00 L 265.00,4.00 L 266.00,4.00 L 267.00,4.01 L 267.99,5.00 L 268.00,5.00 L 269.00,5.00 L 270.00,5.06 L 270.94,6.00 L 271.00,6.00 L 272.00,6.06 L 272.94,7.00 L 273.00,7.01 L 273.99,8.00 L 274.00,8.00 L 275.00,8.02 L 275.98,9.00 L 276.00,9.01 L 276.99,10.00 L 277.00,10.00 L 278.00,10.50 L 278.50,11.00 L 279.00,11.10 L 279.90,12.00 L 280.00,12.12 L 280.88,13.00 L 281.00,13.25 L 281.75,14.00 L 282.00,15.00 L 282.00,15.01 L 282.99,16.00 L 283.00,16.01 L 283.99,17.00 L 284.00,17.07 L 284.93,18.00 L 285.00,19.00 L 285.00,19.01 L 285.99,20.00 L 286.00,21.00 L 286.00,21.01 L 286.99,22.00 L 287.00,23.00 L 287.00,23.01 L 287.99,24.00 L 288.00,25.00 L 288.00,25.01 L 288.99,26.00 L 289.00,27.00 L 289.00,27.01 L 289.99,28.00 L 290.00,29.00 L 290.00,29.01 L 290.99,30.00 L 291.00,31.00 L 291.00,31.01 L 291.99,32.00 L 292.00,33.00 L 292.00,33.01 L 292.99,34.00 L 293.00,35.00 L 293.00,35.01 L 293.99,36.00 L 294.00,37.00 L 294.00,37.02 L 294.98,38.00 L 295.00,39.00 L 295.00,39.02 L 295.98,40.00 L 296.00,41.00 L 296.00,41.02 L 296.98,42.00 L 297.00,43.00 L 297.00,43.02 L 297.98,44.00 L 298.00,45.00 L 298.00,45.02 L 298.98,46.00 L 299.00,47.00 L 299.00,47.02 L 299.98,48.00 L 300.00,49.00 L 300.00,49.02 L 300.98,50.00 L 301.00,51.00 L 301.00,51.02 L 301.98,52.00 L 302.00,53.00 L 302.00,53.03 L 302.97,54.00 L 303.00,55.00 L 303.00,55.03 L 303.97,56.00 L 304.00,57.00 L 304.00,57.04 L 304.96,58.00 L 305.00,59.00 L 305.00,59.04 L 305.96,60.00 L 306.00,61.00 L 306.00,61.04 L 306.96,62.00 L 307.00,63.00 L 307.00,63.05 L 307.95,64.00 L 308.00,65.00 L 308.00,65.06 L 308.94,66.00 L 309.00,67.00 L 309.00,67.06 L 309.94,68.00 L 310.00,69.00 L 310.00,69.08 L 310.92,70.00 L 311.00,71.00 L 311.00,71.08 L 311.92,72.00 L 311.99,73.00 L 312.00,73.12 L 312.88,74.00 L 312.99,75.00 L 313.00,75.12 L 313.88,76.00 L 313.99,77.00 L 314.00,77.17 L 314.83,78.00 L 314.99,79.00 L 315.00,79.25 L 315.75,80.00 L 315.99,81.00 L 316.00,81.25 L 316.75,82.00 L 316.99,83.00 L 317.00,83.50 L 317.50,84.00 L 317.99,85.00 L 318.00,85.50 L 318.50,86.00 L 318.99,87.00 L 319.00,87.50 L 319.50,88.00 L 319.99,89.00 L 320.00,90.00 L 320.00,90.01 L 320.99,91.00 L 321.00,92.00 L 321.00,92.01 L 321.99,93.00 L 322.00,94.00 L 322.00,94.01 L 322.99,95.00 L 323.00,96.00 L 323.00,96.01 L 323.99,97.00 L 324.00,98.00 L 324.00,98.01 L 324.99,99.00 L 325.00,100.00 L 325.00,100.01 L 325.99,101.00 L 326.00,102.00 L 326.00,102.01 L 326.99,103.00 L 327.00,104.00 L 327.00,104.01 L 327.99,105.00 L 328.00,106.00 L 328.00,106.01 L 328.99,107.00 L 329.00,108.00 L 329.00,108.01 L 329.99,109.00 L 330.00,110.00 L 330.00,110.01 L 330.99,111.00 L 331.00,112.00 L 331.00,112.01 L 331.99,113.00 L 332.00,114.00 L 332.00,114.01 L 332.99,115.00 L 333.00,116.00 L 333.00,116.02 L 333.98,117.00 L 334.00,118.00 L 334.00,118.02 L 334.98,119.00 L 335.00,120.00 L 335.00,120.02 L 335.98,121.00 L 336.00,122.00 L 336.00,122.02 L 336.98,123.00 L 337.00,124.00 L 337.00,124.01 L 337.99,125.00 L 338.00,125.00 L 339.00,125.50 L 339.50,126.00 L 340.00,126.00 L 341.00,126.01 L 342.00,126.08 L 342.92,127.00 L 343.00,127.00 L 344.00,127.00 L 345.00,127.00 L 346.00,127.00 L 347.00,127.01 L 348.00,127.01 L 349.00,127.12 L 349.88,128.00 L 350.00,128.00 L 351.00,128.00 L 352.00,128.00 L 353.00,128.00 L 354.00,128.01 L 355.00,128.01 L 356.00,128.17 L 356.83,129.00 L 357.00,129.00 L 358.00,129.00 L 359.00,129.00 L 360.00,129.00 L 361.00,129.01 L 362.00,129.01 L 363.00,129.25 L 363.75,130.00 L 364.00,130.00 L 365.00,130.00 L 366.00,130.00 L 367.00,130.00 L 368.00,130.01 L 369.00,130.01 L 370.00,130.50 L 370.50,131.00 L 371.00,131.00 L 372.00,131.00 L 373.00,131.00 L 374.00,131.00 L 375.00,131.01 L 376.00,131.02 L 376.98,132.00 L 377.00,132.00 L 378.00,132.00 L 379.00,132.00 L 380.00,132.00 L 381.00,132.00 L 382.00,132.01 L 383.00,132.04 L 383.96,133.00 L 384.00,133.00 L 385.00,133.00 L 386.00,133.00 L 387.00,133.00 L 388.00,133.01 L 389.00,133.01 L 390.00,133.04 L 390.96,134.00 L 391.00,134.00 L 392.00,134.00 L 393.00,134.00 L 394.00,134.00 L 395.00,134.01 L 396.00,134.01 L 397.00,134.05 L 397.95,135.00 L 398.00,135.00 L 399.00,135.00 L 400.00,135.00 L 401.00,135.00 L 402.00,135.01 L 403.00,135.01 L 404.00,135.10 L 404.90,136.00 L 405.00,136.00 L 406.00,136.00 L 407.00,136.00 L 408.00,136.00 L 409.00,136.01 L 410.00,136.01 L 411.00,136.17 L 411.83,137.00 L 412.00,137.00 L 413.00,137.00 L 414.00,137.00 L 415.00,137.00 L 416.00,137.01 L 417.00,137.01 L 418.00,137.25 L 418.75,138.00 L 419.00,138.00 L 420.00,138.00 L 421.00,138.00 L 422.00,138.01 L 423.00,138.01 L 424.00,138.02 L 424.98,139.00 L 425.00,139.00 L 426.00,139.00 L 427.00,139.00 L 428.00,139.00 L 429.00,139.00 L 430.00,139.01 L 431.00,139.01 L 431.99,140.00 L 432.00,140.00 L 433.00,140.00 L 434.00,140.00 L 435.00,140.00 L 436.00,140.00 L 437.00,140.01 L 438.00,140.03 L 438.97,141.00 L 439.00,141.00 L 440.00,141.00 L 441.00,141.00 L 442.00,141.00 L 443.00,141.01 L 444.00,141.01 L 445.00,141.04 L 445.96,142.00 L 446.00,142.00 L 447.00,142.00 L 448.00,142.00 L 449.00,142.00 L 450.00,142.01 L 451.00,142.01 L 452.00,142.05 L 452.95,143.00 L 453.00,143.00 L 454.00,143.00 L 455.00,143.00 L 456.00,143.01 L 457.00,143.04 L 457.96,144.00 L 458.00,144.00 L 459.00,144.00 L 460.00,144.02 L 460.98,145.00 L 461.00,145.00 L 462.00,145.01 L 462.99,146.00 L 463.00,146.00 L 464.00,146.01 L 464.99,147.00 L 465.00,147.00 L 466.00,147.01 L 466.99,148.00 L 467.00,148.00 L 468.00,148.08 L 468.92,149.00 L 469.00,149.02 L 469.98,150.00 L 470.00,150.01 L 470.99,151.00 L 471.00,151.01 L 471.99,152.00 L 472.00,152.00 L 473.00,153.00 L 473.00,153.01 L 473.99,154.00 L 474.00,154.01 L 474.99,155.00 L 475.00,155.01 L 475.99,156.00 L 476.00,156.08 L 476.92,157.00 L 477.00,158.00 L 477.00,158.01 L 477.99,159.00 L 478.00,159.50 L 478.50,160.00 L 478.99,161.00 L 479.00,161.17 L 479.83,162.00 L 479.99,163.00 L 480.00,164.00 L 480.00,164.01 L 480.99,165.00 L 481.00,166.00 L 481.00,167.00 L 481.00,167.01 L 481.99,168.00 L 482.00,169.00 L 482.00,170.00 L 482.00,171.00 L 482.00,171.07 L 482.93,172.00 L 482.99,173.00 L 482.99,174.00 L 482.99,175.00 L 483.00,176.00 L 483.00,177.00 L 483.00,178.00 L 482.99,179.00 L 482.99,180.00 L 482.99,181.00 L 482.96,182.00 L 482.00,182.96 L 482.00,183.00 L 482.00,184.00 L 482.00,185.00 L 481.99,186.00 L 481.75,187.00 L 481.00,187.75 L 481.00,188.00 L 480.99,189.00 L 480.50,190.00 L 480.00,190.50 L 479.99,191.00 L 479.93,192.00 L 479.00,192.93 L 478.99,193.00 L 478.88,194.00 L 478.00,194.88 L 477.99,195.00 L 477.00,195.99 L 477.00,196.00 L 476.94,197.00 L 476.00,197.94 L 475.99,198.00 L 475.00,198.99 L 474.99,199.00 L 474.00,199.99 L 473.99,200.00 L 473.00,200.99 L 473.00,201.00 L 472.00,202.00 L 472.00,202.00 L 471.00,203.00 L 470.99,203.00 L 470.00,203.99 L 469.99,204.00 L 469.00,204.99 L 468.99,205.00 L 468.00,205.99 L 467.99,206.00 L 467.00,206.99 L 466.99,207.00 L 466.00,207.99 L 465.99,208.00 L 465.00,208.99 L 464.99,209.00 L 464.00,209.99 L 463.99,210.00 L 463.00,210.99 L 462.99,211.00 L 462.00,211.99 L 461.99,212.00 L 461.00,212.99 L 460.99,213.00 L 460.00,213.99 L 459.99,214.00 L 459.00,214.99 L 458.99,215.00 L 458.00,215.99 L 457.99,216.00 L 457.00,216.99 L 456.99,217.00 L 456.00,217.99 L 455.98,218.00 L 455.00,218.98 L 454.98,219.00 L 454.00,219.98 L 453.98,220.00 L 453.00,220.98 L 452.98,221.00 L 452.00,221.98 L 451.98,222.00 L 451.00,222.97 L 450.97,223.00 L 450.00,223.97 L 449.96,224.00 L 449.00,224.96 L 448.96,225.00 L 448.00,225.96 L 447.96,226.00 L 447.00,226.96 L 446.94,227.00 L 446.00,227.94 L 445.94,228.00 L 445.00,228.94 L 444.93,229.00 L 444.00,229.93 L 443.90,230.00 L 443.00,230.90 L 442.88,231.00 L 442.00,231.88 L 441.75,232.00 L 441.00,232.75 L 440.75,233.00 L 440.00,233.75 L 439.50,234.00 L 439.00,234.50 L 438.00,235.00 L 438.00,235.00 L 437.00,236.00 L 437.00,236.00 L 436.00,237.00 L 436.00,237.00 L 435.00,238.00 L 435.00,238.00 L 434.00,239.00 L 434.00,239.00 L 433.00,240.00 L 433.00,240.00 L 432.00,241.00 L 432.00,241.00 L 431.00,242.00 L 430.99,242.00 L 430.00,242.99 L 429.99,243.00 L 429.00,243.99 L 428.99,244.00 L 428.00,244.99 L 427.99,245.00 L 427.00,245.99 L 426.99,246.00 L 426.00,246.99 L 425.99,247.00 L 425.00,247.99 L 424.99,248.00 L 424.00,248.99 L 423.99,249.00 L 423.00,249.99 L 422.99,250.00 L 422.00,250.99 L 421.99,251.00 L 421.00,251.99 L 420.99,252.00 L 420.00,252.99 L 419.99,253.00 L 419.00,253.99 L 418.99,254.00 L 418.00,254.99 L 417.99,255.00 L 417.00,255.99 L 416.99,256.00 L 416.00,256.99 L 415.98,257.00 L 415.00,257.98 L 414.98,258.00 L 414.00,258.98 L 413.98,259.00 L 413.00,259.98 L 412.98,260.00 L 412.00,260.98 L 411.97,261.00 L 411.00,261.97 L 410.97,262.00 L 410.00,262.97 L 409.96,263.00 L 409.00,263.96 L 408.95,264.00 L 408.00,264.95 L 407.96,265.00 L 407.00,265.96 L 406.94,266.00 L 406.00,266.94 L 405.92,267.00 L 405.00,267.92 L 404.90,268.00 L 404.00,268.90 L 403.88,269.00 L 403.00,269.88 L 402.88,270.00 L 402.00,270.88 L 401.75,271.00 L 401.00,271.75 L 400.75,272.00 L 400.00,272.75 L 399.50,273.00 L 399.00,273.50 L 398.00,274.00 L 398.00,274.00 L 397.00,275.00 L 397.00,275.00 L 396.00,276.00 L 396.00,276.00 L 395.00,277.00 L 395.00,277.00 L 394.00,278.00 L 394.00,278.00 L 393.00,279.00 L 393.00,279.00 L 392.00,280.00 L 391.99,280.00 L 391.00,280.99 L 391.00,281.00 L 390.88,282.00 L 390.00,282.88 L 390.00,283.00 L 389.99,284.00 L 389.99,285.00 L 389.99,286.00 L 389.99,287.00 L 390.00,288.00 L 390.00,289.00 L 390.00,290.00 L 390.00,290.06 L 390.94,291.00 L 390.99,292.00 L 390.99,293.00 L 391.00,294.00 L 391.00,295.00 L 391.00,296.00 L 391.00,296.04 L 391.96,297.00 L 391.99,298.00 L 392.00,299.00 L 392.00,300.00 L 392.00,301.00 L 392.00,302.00 L 392.00,302.02 L 392.98,303.00 L 392.99,304.00 L 393.00,305.00 L 393.00,306.00 L 393.00,307.00 L 393.00,308.00 L 393.00,308.02 L 393.98,309.00 L 393.99,310.00 L 394.00,311.00 L 394.00,312.00 L 394.00,313.00 L 394.00,313.25 L 394.75,314.00 L 394.99,315.00 L 394.99,316.00 L 395.00,317.00 L 395.00,318.00 L 395.00,319.00 L 395.00,319.10 L 395.90,320.00 L 395.99,321.00 L 395.99,322.00 L 396.00,323.00 L 396.00,324.00 L 396.00,325.00 L 396.00,325.06 L 396.94,326.00 L 396.99,327.00 L 396.99,328.00 L 397.00,329.00 L 397.00,330.00 L 397.00,331.00 L 397.00,331.03 L 397.97,332.00 L 397.99,333.00 L 398.00,334.00 L 398.00,335.00 L 398.00,336.00 L 398.00,337.00 L 398.00,337.02 L 398.98,338.00 L 398.99,339.00 L 399.00,340.00 L 399.00,341.00 L 399.00,342.00 L 399.00,342.50 L 399.50,343.00 L 399.98,344.00 L 399.99,345.00 L 400.00,346.00 L 400.00,347.00 L 400.00,348.00 L 400.00,348.25 L 400.75,349.00 L 400.99,350.00 L 400.99,351.00 L 401.00,352.00 L 401.00,353.00 L 401.00,354.00 L 401.00,354.10 L 401.90,355.00 L 401.99,356.00 L 401.99,357.00 L 402.00,358.00 L 402.00,359.00 L 402.00,360.00 L 402.00,360.06 L 402.94,361.00 L 402.99,362.00 L 402.99,363.00 L 403.00,364.00 L 403.00,365.00 L 403.00,366.00 L 403.00,366.03 L 403.97,367.00 L 403.99,368.00 L 404.00,369.00 L 404.00,370.00 L 404.00,371.00 L 404.00,372.00 L 404.00,372.02 L 404.98,373.00 L 404.99,374.00 L 405.00,375.00 L 405.00,376.00 L 405.00,377.00 L 405.00,377.50 L 405.50,378.00 L 405.98,379.00 L 405.99,380.00 L 406.00,381.00 L 406.00,382.00 L 406.00,383.00 L 406.00,383.17 L 406.83,384.00 L 406.99,385.00 L 406.99,386.00 L 407.00,387.00 L 407.00,388.00 L 407.00,389.00 L 407.00,389.08 L 407.92,390.00 L 407.99,391.00 L 407.99,392.00 L 408.00,393.00 L 408.00,394.00 L 408.00,395.00 L 408.00,395.05 L 408.95,396.00 L 408.99,397.00 L 408.99,398.00 L 409.00,399.00 L 409.00,400.00 L 409.00,401.00 L 409.00,402.00 L 409.00,403.00 L 409.00,404.00 L 409.00,405.00 L 409.00,406.00 L 409.00,407.00 L 409.00,408.00 L 408.99,409.00 L 408.99,410.00 L 408.90,411.00 L 408.00,411.90 L 408.00,412.00 L 408.00,413.00 L 407.99,414.00 L 407.00,414.99 L 407.00,415.00 L 407.00,416.00 L 406.97,417.00 L 406.00,417.97 L 406.00,418.00 L 405.98,419.00 L 405.00,419.98 L 405.00,420.00 L 404.96,421.00 L 404.00,421.96 L 403.99,422.00 L 403.00,422.99 L 403.00,423.00 L 402.95,424.00 L 402.00,424.95 L 401.99,425.00 L 401.00,425.99 L 400.99,426.00 L 400.00,426.99 L 399.99,427.00 L 399.00,427.99 L 398.99,428.00 L 398.00,428.99 L 397.99,429.00 L 397.00,429.99 L 396.99,430.00 L 396.00,430.99 L 395.94,431.00 L 395.00,431.94 L 394.00,432.00 L 393.99,432.00 L 393.00,432.99 L 392.93,433.00 L 392.00,433.93 L 391.00,434.00 L 390.97,434.00 L 390.00,434.97 L 389.00,435.00 L 388.94,435.00 L 388.00,435.94 L 387.00,435.99 L 386.00,436.00 L 385.98,436.00 L 385.00,436.98 L 384.00,437.00 L 383.00,437.00 L 382.50,437.00 L 382.00,437.50 Z"/><path d="M 124.00,66.97 L 123.00,66.99 L 122.00,67.00 L 121.00,67.00 L 120.00,67.00 L 119.00,67.00 L 118.00,67.00 L 117.00,66.99 L 116.00,66.98 L 115.02,66.00 L 115.00,66.00 L 114.00,65.99 L 113.00,65.50 L 112.50,65.00 L 112.00,64.99 L 111.01,64.00 L 111.00,63.99 L 110.01,63.00 L 110.00,62.99 L 109.01,62.00 L 109.00,61.99 L 108.01,61.00 L 108.00,60.97 L 107.03,60.00 L 107.00,59.00 L 107.00,59.00 L 106.00,58.00 L 106.00,57.99 L 105.01,57.00 L 105.00,56.94 L 104.06,56.00 L 104.00,55.00 L 104.00,54.99 L 103.01,54.00 L 103.00,53.98 L 102.02,53.00 L 102.00,52.83 L 101.17,52.00 L 101.00,51.00 L 101.00,50.99 L 100.01,50.00 L 100.00,49.97 L 99.03,49.00 L 99.00,48.00 L 99.00,48.00 L 98.00,47.00 L 98.00,46.99 L 97.01,46.00 L 97.00,45.94 L 96.06,45.00 L 96.00,44.00 L 96.00,43.99 L 95.01,43.00 L 95.00,42.98 L 94.02,42.00 L 94.00,41.50 L 93.50,41.00 L 93.01,40.00 L 93.00,39.96 L 92.04,39.00 L 92.00,38.00 L 92.00,37.00 L 92.00,36.97 L 91.03,36.00 L 91.01,35.00 L 91.01,34.00 L 91.01,33.00 L 91.01,32.00 L 91.01,31.00 L 91.04,30.00 L 92.00,29.04 L 92.00,29.00 L 92.00,28.00 L 92.05,27.00 L 93.00,26.05 L 93.00,26.00 L 93.25,25.00 L 94.00,24.25 L 94.02,24.00 L 95.00,23.02 L 95.02,23.00 L 96.00,22.02 L 96.04,22.00 L 97.00,21.04 L 98.00,21.00 L 98.01,21.00 L 99.00,20.01 L 100.00,20.00 L 100.01,20.00 L 101.00,19.01 L 102.00,19.00 L 103.00,19.00 L 104.00,19.00 L 105.00,19.00 L 106.00,19.00 L 107.00,19.00 L 108.00,19.00 L 109.00,19.00 L 110.00,19.01 L 111.00,19.25 L 111.75,20.00 L 112.00,20.01 L 113.00,20.12 L 113.88,21.00 L 114.00,21.02 L 114.98,22.00 L 115.00,22.01 L 115.99,23.00 L 116.00,23.01 L 116.99,24.00 L 117.00,24.02 L 117.98,25.00 L 118.00,25.50 L 118.50,26.00 L 119.00,27.00 L 119.00,27.01 L 119.99,28.00 L 120.00,28.04 L 120.96,29.00 L 121.00,30.00 L 121.00,30.01 L 121.99,31.00 L 122.00,31.01 L 122.99,32.00 L 123.00,32.10 L 123.90,33.00 L 124.00,34.00 L 124.00,34.01 L 124.99,35.00 L 125.00,35.02 L 125.98,36.00 L 126.00,36.50 L 126.50,37.00 L 127.00,38.00 L 127.00,38.01 L 127.99,39.00 L 128.00,39.04 L 128.96,40.00 L 129.00,41.00 L 129.00,41.01 L 129.99,42.00 L 130.00,42.01 L 130.99,43.00 L 131.00,43.08 L 131.92,44.00 L 132.00,45.00 L 132.00,45.02 L 132.98,46.00 L 133.00,47.00 L 133.00,47.03 L 133.97,48.00 L 133.99,49.00 L 134.00,50.00 L 134.00,51.00 L 134.00,52.00 L 134.00,53.00 L 134.00,54.00 L 134.00,55.00 L 134.00,56.00 L 133.99,57.00 L 133.00,57.99 L 133.00,58.00 L 132.99,59.00 L 132.75,60.00 L 132.00,60.75 L 131.98,61.00 L 131.00,61.98 L 130.99,62.00 L 130.00,62.99 L 129.99,63.00 L 129.00,63.99 L 128.98,64.00 L 128.00,64.98 L 127.00,65.00 L 126.99,65.00 L 126.00,65.99 L 125.00,66.00 L 124.97,66.00 L 124.00,66.97 Z"/><path d="M 395.00,66.99 L 394.00,67.00 L 393.00,67.00 L 392.00,67.00 L 391.00,67.00 L 390.00,67.00 L 389.00,67.00 L 388.00,67.00 L 387.00,66.99 L 386.01,66.00 L 386.00,66.00 L 385.00,65.99 L 384.00,65.50 L 383.50,65.00 L 383.00,64.99 L 382.01,64.00 L 382.00,63.99 L 381.01,63.00 L 381.00,62.99 L 380.01,62.00 L 380.00,61.99 L 379.01,61.00 L 379.00,60.94 L 378.06,60.00 L 378.00,59.00 L 378.00,58.90 L 377.10,58.00 L 377.01,57.00 L 377.00,56.00 L 377.00,55.00 L 377.00,54.00 L 377.00,53.00 L 377.00,52.00 L 377.00,51.00 L 377.00,50.00 L 377.00,49.00 L 377.02,48.00 L 378.00,47.02 L 378.00,47.00 L 378.02,46.00 L 379.00,45.02 L 379.00,45.00 L 379.12,44.00 L 380.00,43.12 L 380.01,43.00 L 381.00,42.01 L 381.01,42.00 L 382.00,41.01 L 382.00,41.00 L 382.05,40.00 L 383.00,39.05 L 383.01,39.00 L 384.00,38.01 L 384.00,38.00 L 384.50,37.00 L 385.00,36.50 L 385.02,36.00 L 386.00,35.02 L 386.01,35.00 L 387.00,34.01 L 387.00,34.00 L 387.12,33.00 L 388.00,32.12 L 388.01,32.00 L 389.00,31.01 L 389.01,31.00 L 390.00,30.01 L 390.00,30.00 L 390.05,29.00 L 391.00,28.05 L 391.01,28.00 L 392.00,27.01 L 392.00,27.00 L 392.50,26.00 L 393.00,25.50 L 393.02,25.00 L 394.00,24.02 L 394.01,24.00 L 395.00,23.01 L 395.01,23.00 L 396.00,22.01 L 396.02,22.00 L 397.00,21.02 L 397.25,21.00 L 398.00,20.25 L 399.00,20.01 L 400.00,20.00 L 400.01,20.00 L 401.00,19.01 L 402.00,19.00 L 403.00,19.00 L 404.00,19.00 L 405.00,19.00 L 406.00,19.00 L 407.00,19.00 L 408.00,19.00 L 409.00,19.00 L 410.00,19.02 L 410.98,20.00 L 411.00,20.00 L 412.00,20.01 L 412.99,21.00 L 413.00,21.00 L 414.00,21.10 L 414.90,22.00 L 415.00,22.04 L 415.96,23.00 L 416.00,23.06 L 416.94,24.00 L 417.00,25.00 L 417.00,25.01 L 417.99,26.00 L 418.00,26.25 L 418.75,27.00 L 418.99,28.00 L 419.00,29.00 L 419.00,29.25 L 419.75,30.00 L 419.99,31.00 L 419.99,32.00 L 419.99,33.00 L 419.99,34.00 L 419.99,35.00 L 419.92,36.00 L 419.00,36.92 L 419.00,37.00 L 418.99,38.00 L 418.94,39.00 L 418.00,39.94 L 417.99,40.00 L 417.50,41.00 L 417.00,41.50 L 416.98,42.00 L 416.00,42.98 L 415.99,43.00 L 415.00,43.99 L 415.00,44.00 L 414.94,45.00 L 414.00,45.94 L 413.99,46.00 L 413.00,46.99 L 413.00,47.00 L 412.00,48.00 L 412.00,48.00 L 411.97,49.00 L 411.00,49.97 L 410.99,50.00 L 410.00,50.99 L 410.00,51.00 L 409.83,52.00 L 409.00,52.83 L 408.98,53.00 L 408.00,53.98 L 407.99,54.00 L 407.00,54.99 L 407.00,55.00 L 406.95,56.00 L 406.00,56.95 L 405.99,57.00 L 405.00,57.99 L 405.00,58.00 L 404.50,59.00 L 404.00,59.50 L 403.97,60.00 L 403.00,60.97 L 402.99,61.00 L 402.00,61.99 L 401.99,62.00 L 401.00,62.99 L 400.99,63.00 L 400.00,63.99 L 399.99,64.00 L 399.00,64.99 L 398.75,65.00 L 398.00,65.75 L 397.00,65.99 L 396.00,66.00 L 395.99,66.00 L 395.00,66.99 Z"/><path d="M 377.01,409.00 L 378.00,408.01 L 378.02,408.00 L 379.00,407.02 L 379.01,407.00 L 380.00,406.01 L 380.00,406.00 L 380.01,405.00 L 380.01,404.00 L 380.01,403.00 L 380.01,402.00 L 380.00,401.00 L 380.00,400.00 L 380.00,399.00 L 380.00,398.95 L 379.05,398.00 L 379.01,397.00 L 379.01,396.00 L 379.00,395.00 L 379.00,394.00 L 379.00,393.00 L 379.00,392.97 L 378.03,392.00 L 378.01,391.00 L 378.00,390.00 L 378.00,389.00 L 378.00,388.00 L 378.00,387.00 L 378.00,386.98 L 377.02,386.00 L 377.01,385.00 L 377.00,384.00 L 377.00,383.00 L 377.00,382.00 L 377.00,381.50 L 376.50,381.00 L 376.02,380.00 L 376.01,379.00 L 376.00,378.00 L 376.00,377.00 L 376.00,376.00 L 376.00,375.83 L 375.17,375.00 L 375.01,374.00 L 375.01,373.00 L 375.00,372.00 L 375.00,371.00 L 375.00,370.00 L 375.00,369.92 L 374.08,369.00 L 374.01,368.00 L 374.01,367.00 L 374.00,366.00 L 374.00,365.00 L 374.00,364.00 L 374.00,363.95 L 373.05,363.00 L 373.01,362.00 L 373.01,361.00 L 373.00,360.00 L 373.00,359.00 L 373.00,358.00 L 373.00,357.97 L 372.03,357.00 L 372.01,356.00 L 372.00,355.00 L 372.00,354.00 L 372.00,353.00 L 372.00,352.00 L 372.00,351.98 L 371.02,351.00 L 371.01,350.00 L 371.00,349.00 L 371.00,348.00 L 371.00,347.00 L 371.00,346.50 L 370.50,346.00 L 370.02,345.00 L 370.01,344.00 L 370.00,343.00 L 370.00,342.00 L 370.00,341.00 L 370.00,340.83 L 369.17,340.00 L 369.01,339.00 L 369.01,338.00 L 369.00,337.00 L 369.00,336.00 L 369.00,335.00 L 369.00,334.93 L 368.07,334.00 L 368.01,333.00 L 368.01,332.00 L 368.00,331.00 L 368.00,330.00 L 368.00,329.00 L 368.00,328.95 L 367.05,328.00 L 367.01,327.00 L 367.01,326.00 L 367.00,325.00 L 367.00,324.00 L 367.00,323.00 L 367.00,322.97 L 366.03,322.00 L 366.01,321.00 L 366.00,320.00 L 366.00,319.00 L 366.00,318.00 L 366.00,317.00 L 366.00,316.98 L 365.02,316.00 L 365.01,315.00 L 365.00,314.00 L 365.00,313.00 L 365.00,312.00 L 365.00,311.50 L 364.50,311.00 L 364.02,310.00 L 364.01,309.00 L 364.00,308.00 L 364.00,307.00 L 364.00,306.00 L 364.00,305.83 L 363.17,305.00 L 363.01,304.00 L 363.01,303.00 L 363.00,302.00 L 363.00,301.00 L 363.00,300.00 L 363.00,299.93 L 362.07,299.00 L 362.01,298.00 L 362.01,297.00 L 362.00,296.00 L 362.00,295.00 L 362.00,294.00 L 362.00,293.96 L 361.04,293.00 L 361.01,292.00 L 361.01,291.00 L 361.00,290.00 L 361.00,289.00 L 361.00,288.00 L 361.00,287.00 L 361.00,286.00 L 361.00,285.00 L 361.00,284.00 L 361.00,283.00 L 361.00,282.00 L 361.00,281.00 L 361.00,280.00 L 361.01,279.00 L 361.01,278.00 L 362.00,277.01 L 362.00,277.00 L 362.00,276.00 L 362.01,275.00 L 362.04,274.00 L 363.00,273.04 L 363.00,273.00 L 363.01,272.00 L 364.00,271.01 L 364.00,271.00 L 364.01,270.00 L 365.00,269.01 L 365.00,269.00 L 365.01,268.00 L 366.00,267.01 L 366.00,267.00 L 366.03,266.00 L 367.00,265.03 L 367.01,265.00 L 368.00,264.01 L 368.00,264.00 L 368.50,263.00 L 369.00,262.50 L 369.17,262.00 L 370.00,261.17 L 370.05,261.00 L 371.00,260.05 L 371.05,260.00 L 372.00,259.05 L 372.05,259.00 L 373.00,258.05 L 373.07,258.00 L 374.00,257.07 L 374.08,257.00 L 375.00,256.08 L 375.10,256.00 L 376.00,255.10 L 376.17,255.00 L 377.00,254.17 L 377.17,254.00 L 378.00,253.17 L 378.50,253.00 L 379.00,252.50 L 379.50,252.00 L 380.00,251.50 L 380.50,251.00 L 381.00,250.50 L 382.00,250.00 L 382.00,250.00 L 383.00,249.00 L 383.00,249.00 L 384.00,248.00 L 384.00,248.00 L 385.00,247.00 L 385.00,247.00 L 386.00,246.00 L 386.00,246.00 L 387.00,245.00 L 387.00,245.00 L 388.00,244.00 L 388.01,244.00 L 389.00,243.01 L 389.01,243.00 L 390.00,242.01 L 390.01,242.00 L 391.00,241.01 L 391.01,241.00 L 392.00,240.01 L 392.01,240.00 L 393.00,239.01 L 393.01,239.00 L 394.00,238.01 L 394.01,238.00 L 395.00,237.01 L 395.01,237.00 L 396.00,236.01 L 396.01,236.00 L 397.00,235.01 L 397.01,235.00 L 398.00,234.01 L 398.01,234.00 L 399.00,233.01 L 399.01,233.00 L 400.00,232.01 L 400.01,232.00 L 401.00,231.01 L 401.01,231.00 L 402.00,230.01 L 402.02,230.00 L 403.00,229.02 L 403.02,229.00 L 404.00,228.02 L 404.02,228.00 L 405.00,227.02 L 405.02,227.00 L 406.00,226.02 L 406.02,226.00 L 407.00,225.02 L 407.03,225.00 L 408.00,224.03 L 408.03,224.00 L 409.00,223.03 L 409.03,223.00 L 410.00,222.03 L 410.05,222.00 L 411.00,221.05 L 411.05,221.00 L 412.00,220.05 L 412.06,220.00 L 413.00,219.06 L 413.08,219.00 L 414.00,218.08 L 414.08,218.00 L 415.00,217.08 L 415.17,217.00 L 416.00,216.17 L 416.17,216.00 L 417.00,215.17 L 417.17,215.00 L 418.00,214.17 L 418.50,214.00 L 419.00,213.50 L 419.50,213.00 L 420.00,212.50 L 420.50,212.00 L 421.00,211.50 L 422.00,211.00 L 422.00,211.00 L 423.00,210.00 L 423.00,210.00 L 424.00,209.00 L 424.00,209.00 L 425.00,208.00 L 425.00,208.00 L 426.00,207.00 L 426.00,207.00 L 427.00,206.00 L 427.00,206.00 L 428.00,205.00 L 428.01,205.00 L 429.00,204.01 L 429.01,204.00 L 430.00,203.01 L 430.01,203.00 L 431.00,202.01 L 431.01,202.00 L 432.00,201.01 L 432.01,201.00 L 433.00,200.01 L 433.01,200.00 L 434.00,199.01 L 434.01,199.00 L 435.00,198.01 L 435.01,198.00 L 436.00,197.01 L 436.01,197.00 L 437.00,196.01 L 437.01,196.00 L 438.00,195.01 L 438.01,195.00 L 439.00,194.01 L 439.01,194.00 L 440.00,193.01 L 440.01,193.00 L 441.00,192.01 L 441.01,192.00 L 442.00,191.01 L 442.02,191.00 L 443.00,190.02 L 443.02,190.00 L 444.00,189.02 L 444.02,189.00 L 445.00,188.02 L 445.02,188.00 L 446.00,187.02 L 446.02,187.00 L 447.00,186.02 L 447.03,186.00 L 448.00,185.03 L 448.03,185.00 L 449.00,184.03 L 449.03,184.00 L 450.00,183.03 L 450.04,183.00 L 451.00,182.04 L 451.05,182.00 L 452.00,181.05 L 452.03,181.00 L 453.00,180.03 L 453.01,180.00 L 453.50,179.00 L 454.00,178.50 L 454.00,178.00 L 454.00,177.00 L 454.00,176.00 L 454.00,175.90 L 453.10,175.00 L 453.01,174.00 L 453.00,173.97 L 452.02,173.00 L 452.00,172.97 L 451.03,172.00 L 451.00,172.00 L 450.00,171.97 L 449.03,171.00 L 449.00,171.00 L 448.00,171.00 L 447.00,171.00 L 446.00,171.00 L 445.00,170.99 L 444.00,170.98 L 443.02,170.00 L 443.00,170.00 L 442.00,170.00 L 441.00,170.00 L 440.00,170.00 L 439.00,169.99 L 438.00,169.99 L 437.00,169.98 L 436.02,169.00 L 436.00,169.00 L 435.00,169.00 L 434.00,169.00 L 433.00,169.00 L 432.00,168.99 L 431.00,168.99 L 430.00,168.97 L 429.03,168.00 L 429.00,168.00 L 428.00,168.00 L 427.00,168.00 L 426.00,168.00 L 425.00,167.99 L 424.00,167.99 L 423.00,167.97 L 422.03,167.00 L 422.00,167.00 L 421.00,167.00 L 420.00,167.00 L 419.00,167.00 L 418.00,166.99 L 417.00,166.99 L 416.00,166.93 L 415.07,166.00 L 415.00,166.00 L 414.00,166.00 L 413.00,166.00 L 412.00,166.00 L 411.00,165.99 L 410.00,165.99 L 409.00,165.92 L 408.08,165.00 L 408.00,165.00 L 407.00,165.00 L 406.00,165.00 L 405.00,165.00 L 404.00,164.99 L 403.00,164.99 L 402.00,164.90 L 401.10,164.00 L 401.00,164.00 L 400.00,164.00 L 399.00,164.00 L 398.00,164.00 L 397.00,163.99 L 396.00,163.98 L 395.02,163.00 L 395.00,163.00 L 394.00,163.00 L 393.00,163.00 L 392.00,163.00 L 391.00,163.00 L 390.00,162.99 L 389.00,162.98 L 388.00,162.50 L 387.50,162.00 L 387.00,162.00 L 386.00,162.00 L 385.00,162.00 L 384.00,161.99 L 383.00,161.99 L 382.00,161.97 L 381.03,161.00 L 381.00,161.00 L 380.00,161.00 L 379.00,161.00 L 378.00,161.00 L 377.00,160.99 L 376.00,160.99 L 375.00,160.98 L 374.02,160.00 L 374.00,160.00 L 373.00,160.00 L 372.00,160.00 L 371.00,160.00 L 370.00,159.99 L 369.00,159.99 L 368.00,159.97 L 367.03,159.00 L 367.00,159.00 L 366.00,159.00 L 365.00,159.00 L 364.00,159.00 L 363.00,158.99 L 362.00,158.99 L 361.00,158.96 L 360.04,158.00 L 360.00,158.00 L 359.00,158.00 L 358.00,158.00 L 357.00,158.00 L 356.00,157.99 L 355.00,157.99 L 354.00,157.92 L 353.08,157.00 L 353.00,157.00 L 352.00,157.00 L 351.00,157.00 L 350.00,157.00 L 349.00,156.99 L 348.00,156.99 L 347.00,156.92 L 346.08,156.00 L 346.00,156.00 L 345.00,156.00 L 344.00,156.00 L 343.00,156.00 L 342.00,155.99 L 341.00,155.99 L 340.00,155.88 L 339.12,155.00 L 339.00,155.00 L 338.00,155.00 L 337.00,155.00 L 336.00,154.99 L 335.00,154.99 L 334.01,154.00 L 334.00,154.00 L 333.00,154.00 L 332.00,153.99 L 331.00,153.97 L 330.03,153.00 L 330.00,153.00 L 329.00,152.99 L 328.00,152.75 L 327.25,152.00 L 327.00,151.99 L 326.00,151.90 L 325.10,151.00 L 325.00,150.99 L 324.01,150.00 L 324.00,150.00 L 323.00,149.98 L 322.02,149.00 L 322.00,148.99 L 321.01,148.00 L 321.00,148.00 L 320.00,147.88 L 319.12,147.00 L 319.00,146.97 L 318.03,146.00 L 318.00,145.98 L 317.02,145.00 L 317.00,144.97 L 316.03,144.00 L 316.00,143.95 L 315.05,143.00 L 315.00,142.50 L 314.50,142.00 L 314.00,141.00 L 314.00,140.99 L 313.01,140.00 L 313.00,139.94 L 312.06,139.00 L 312.00,138.00 L 312.00,137.98 L 311.02,137.00 L 311.00,136.00 L 311.00,135.99 L 310.01,135.00 L 310.00,134.00 L 310.00,133.99 L 309.01,133.00 L 309.00,132.00 L 309.00,131.98 L 308.02,131.00 L 308.00,130.00 L 308.00,129.98 L 307.02,129.00 L 307.00,128.00 L 307.00,127.98 L 306.02,127.00 L 306.00,126.00 L 306.00,125.98 L 305.02,125.00 L 305.00,124.00 L 305.00,123.98 L 304.02,123.00 L 304.00,122.00 L 304.00,121.97 L 303.02,121.00 L 303.00,120.00 L 303.00,119.97 L 302.03,119.00 L 302.00,118.00 L 302.00,117.97 L 301.03,117.00 L 301.00,116.00 L 301.00,115.97 L 300.03,115.00 L 300.00,114.00 L 300.00,113.96 L 299.04,113.00 L 299.00,112.00 L 299.00,111.96 L 298.04,111.00 L 298.00,110.00 L 298.00,109.95 L 297.05,109.00 L 297.00,108.00 L 297.00,107.95 L 296.05,107.00 L 296.00,106.00 L 296.00,105.94 L 295.06,105.00 L 295.00,104.00 L 295.00,103.94 L 294.06,103.00 L 294.00,102.00 L 294.00,101.92 L 293.08,101.00 L 293.00,100.00 L 293.00,99.90 L 292.10,99.00 L 292.00,98.00 L 292.00,97.90 L 291.10,97.00 L 291.01,96.00 L 291.00,95.83 L 290.17,95.00 L 290.01,94.00 L 290.00,93.83 L 289.17,93.00 L 289.01,92.00 L 289.00,91.83 L 288.17,91.00 L 288.01,90.00 L 288.00,89.75 L 287.25,89.00 L 287.01,88.00 L 287.00,87.50 L 286.50,87.00 L 286.01,86.00 L 286.00,85.50 L 285.50,85.00 L 285.01,84.00 L 285.00,83.00 L 285.00,82.99 L 284.01,82.00 L 284.00,81.00 L 284.00,80.99 L 283.01,80.00 L 283.00,79.00 L 283.00,78.99 L 282.01,78.00 L 282.00,77.00 L 282.00,76.99 L 281.01,76.00 L 281.00,75.00 L 281.00,74.99 L 280.01,74.00 L 280.00,73.00 L 280.00,72.99 L 279.01,72.00 L 279.00,71.00 L 279.00,70.99 L 278.01,70.00 L 278.00,69.00 L 278.00,68.99 L 277.01,68.00 L 277.00,67.00 L 277.00,66.99 L 276.01,66.00 L 276.00,65.00 L 276.00,64.99 L 275.01,64.00 L 275.00,63.00 L 275.00,62.99 L 274.01,62.00 L 274.00,61.00 L 274.00,60.99 L 273.01,60.00 L 273.00,59.00 L 273.00,58.99 L 272.01,58.00 L 272.00,57.00 L 272.00,56.99 L 271.01,56.00 L 271.00,55.00 L 271.00,54.98 L 270.02,54.00 L 270.00,53.00 L 270.00,52.98 L 269.02,52.00 L 269.00,51.00 L 269.00,50.98 L 268.02,50.00 L 268.00,49.00 L 268.00,48.98 L 267.02,48.00 L 267.00,47.00 L 267.00,46.98 L 266.02,46.00 L 266.00,45.00 L 266.00,44.98 L 265.02,44.00 L 265.00,43.00 L 265.00,42.97 L 264.03,42.00 L 264.00,41.00 L 264.00,40.97 L 263.03,40.00 L 263.00,39.00 L 263.00,38.97 L 262.03,38.00 L 262.00,37.00 L 262.00,36.97 L 261.03,36.00 L 261.00,35.00 L 261.00,34.97 L 260.03,34.00 L 260.00,33.00 L 260.00,33.00 L 259.00,32.75 L 258.25,32.00 L 258.00,31.99 L 257.00,31.95 L 256.05,31.00 L 256.00,31.00 L 255.00,31.00 L 254.95,31.00 L 254.00,31.95 L 253.00,31.99 L 252.50,32.00 L 252.00,32.50 L 251.00,33.00 L 251.00,33.00 L 250.97,34.00 L 250.00,34.97 L 250.00,35.00 L 249.97,36.00 L 249.00,36.97 L 249.00,37.00 L 248.97,38.00 L 248.00,38.98 L 248.00,39.00 L 247.98,40.00 L 247.00,40.98 L 247.00,41.00 L 246.98,42.00 L 246.00,42.98 L 246.00,43.00 L 245.98,44.00 L 245.00,44.98 L 245.00,45.00 L 244.98,46.00 L 244.00,46.98 L 244.00,47.00 L 243.98,48.00 L 243.00,48.98 L 243.00,49.00 L 242.98,50.00 L 242.00,50.98 L 242.00,51.00 L 241.98,52.00 L 241.00,52.98 L 241.00,53.00 L 240.99,54.00 L 240.00,54.99 L 240.00,55.00 L 239.99,56.00 L 239.00,56.99 L 239.00,57.00 L 238.99,58.00 L 238.00,58.99 L 238.00,59.00 L 237.99,60.00 L 237.00,60.99 L 237.00,61.00 L 236.99,62.00 L 236.00,62.99 L 236.00,63.00 L 235.99,64.00 L 235.00,64.99 L 235.00,65.00 L 234.99,66.00 L 234.00,66.99 L 234.00,67.00 L 233.99,68.00 L 233.00,68.99 L 233.00,69.00 L 232.99,70.00 L 232.00,70.99 L 232.00,71.00 L 231.99,72.00 L 231.00,72.99 L 231.00,73.00 L 230.99,74.00 L 230.00,74.99 L 230.00,75.00 L 229.99,76.00 L 229.00,76.99 L 229.00,77.00 L 228.99,78.00 L 228.00,78.99 L 228.00,79.00 L 227.99,80.00 L 227.50,81.00 L 227.00,81.50 L 226.99,82.00 L 226.50,83.00 L 226.00,83.50 L 225.99,84.00 L 225.75,85.00 L 225.00,85.75 L 224.99,86.00 L 224.75,87.00 L 224.00,87.75 L 223.99,88.00 L 223.75,89.00 L 223.00,89.75 L 222.99,90.00 L 222.88,91.00 L 222.00,91.88 L 221.99,92.00 L 221.88,93.00 L 221.00,93.88 L 220.99,94.00 L 220.90,95.00 L 220.00,95.90 L 220.00,96.00 L 219.92,97.00 L 219.00,97.92 L 219.00,98.00 L 218.93,99.00 L 218.00,99.93 L 218.00,100.00 L 217.94,101.00 L 217.00,101.94 L 217.00,102.00 L 216.94,103.00 L 216.00,103.94 L 216.00,104.00 L 215.95,105.00 L 215.00,105.95 L 215.00,106.00 L 214.96,107.00 L 214.00,107.96 L 214.00,108.00 L 213.96,109.00 L 213.00,109.96 L 213.00,110.00 L 212.97,111.00 L 212.00,111.97 L 212.00,112.00 L 211.97,113.00 L 211.00,113.97 L 211.00,114.00 L 210.97,115.00 L 210.00,115.97 L 210.00,116.00 L 209.98,117.00 L 209.00,117.98 L 209.00,118.00 L 208.98,119.00 L 208.00,119.98 L 208.00,120.00 L 207.98,121.00 L 207.00,121.98 L 207.00,122.00 L 206.98,123.00 L 206.00,123.98 L 206.00,124.00 L 205.98,125.00 L 205.00,125.98 L 205.00,126.00 L 204.98,127.00 L 204.00,127.98 L 204.00,128.00 L 203.98,129.00 L 203.00,129.98 L 203.00,130.00 L 202.99,131.00 L 202.00,131.99 L 202.00,132.00 L 201.99,133.00 L 201.00,133.99 L 201.00,134.00 L 200.99,135.00 L 200.00,135.99 L 200.00,136.00 L 199.98,137.00 L 199.00,137.98 L 199.00,138.00 L 198.94,139.00 L 198.00,139.94 L 197.99,140.00 L 197.00,140.99 L 197.00,141.00 L 196.50,142.00 L 196.00,142.50 L 195.96,143.00 L 195.00,143.96 L 194.97,144.00 L 194.00,144.97 L 193.98,145.00 L 193.00,145.98 L 192.97,146.00 L 192.00,146.97 L 191.88,147.00 L 191.00,147.88 L 190.00,148.00 L 189.99,148.00 L 189.00,148.99 L 188.98,149.00 L 188.00,149.98 L 187.00,150.00 L 186.99,150.00 L 186.00,150.99 L 185.90,151.00 L 185.00,151.90 L 184.00,151.99 L 183.75,152.00 L 183.00,152.75 L 182.00,152.99 L 181.00,153.00 L 180.97,153.00 L 180.00,153.97 L 179.00,153.99 L 178.00,154.00 L 177.00,154.00 L 176.99,154.00 L 176.00,154.99 L 175.00,154.99 L 174.00,155.00 L 173.00,155.00 L 172.00,155.00 L 171.94,155.00 L 171.00,155.94 L 170.00,155.99 L 169.00,155.99 L 168.00,156.00 L 167.00,156.00 L 166.00,156.00 L 165.00,156.00 L 164.93,156.00 L 164.00,156.93 L 163.00,156.99 L 162.00,156.99 L 161.00,157.00 L 160.00,157.00 L 159.00,157.00 L 158.00,157.00 L 157.96,157.00 L 157.00,157.96 L 156.00,157.99 L 155.00,157.99 L 154.00,158.00 L 153.00,158.00 L 152.00,158.00 L 151.00,158.00 L 150.96,158.00 L 150.00,158.96 L 149.00,158.99 L 148.00,158.99 L 147.00,159.00 L 146.00,159.00 L 145.00,159.00 L 144.00,159.00 L 143.98,159.00 L 143.00,159.98 L 142.00,159.99 L 141.00,160.00 L 140.00,160.00 L 139.00,160.00 L 138.00,160.00 L 137.00,160.00 L 136.98,160.00 L 136.00,160.98 L 135.00,160.99 L 134.00,160.99 L 133.00,161.00 L 132.00,161.00 L 131.00,161.00 L 130.75,161.00 L 130.00,161.75 L 129.00,161.99 L 128.00,161.99 L 127.00,162.00 L 126.00,162.00 L 125.00,162.00 L 124.00,162.00 L 123.75,162.00 L 123.00,162.75 L 122.00,162.98 L 121.00,162.99 L 120.00,163.00 L 119.00,163.00 L 118.00,163.00 L 117.00,163.00 L 116.88,163.00 L 116.00,163.88 L 115.00,163.99 L 114.00,163.99 L 113.00,164.00 L 112.00,164.00 L 111.00,164.00 L 110.00,164.00 L 109.92,164.00 L 109.00,164.92 L 108.00,164.99 L 107.00,164.99 L 106.00,165.00 L 105.00,165.00 L 104.00,165.00 L 103.00,165.00 L 102.95,165.00 L 102.00,165.95 L 101.00,165.99 L 100.00,165.99 L 99.00,166.00 L 98.00,166.00 L 97.00,166.00 L 96.00,166.00 L 95.96,166.00 L 95.00,166.96 L 94.00,166.99 L 93.00,166.99 L 92.00,167.00 L 91.00,167.00 L 90.00,167.00 L 89.00,167.00 L 88.97,167.00 L 88.00,167.97 L 87.00,167.99 L 86.00,167.99 L 85.00,168.00 L 84.00,168.00 L 83.00,168.00 L 82.00,168.00 L 81.99,168.00 L 81.00,168.99 L 80.00,168.99 L 79.00,169.00 L 78.00,169.00 L 77.00,169.00 L 76.00,169.00 L 75.00,169.00 L 74.98,169.00 L 74.00,169.98 L 73.00,169.99 L 72.00,169.99 L 71.00,170.00 L 70.00,170.00 L 69.00,170.00 L 68.50,170.00 L 68.00,170.50 L 67.00,170.98 L 66.00,170.99 L 65.00,171.00 L 64.00,171.00 L 63.00,171.00 L 62.00,171.00 L 61.97,171.00 L 61.00,171.97 L 60.00,172.00 L 59.97,172.00 L 59.00,172.97 L 58.98,173.00 L 58.00,173.98 L 57.99,174.00 L 57.90,175.00 L 57.00,175.90 L 57.00,176.00 L 57.00,177.00 L 57.00,178.00 L 57.00,178.50 L 57.50,179.00 L 57.99,180.00 L 58.00,180.03 L 58.97,181.00 L 59.00,181.05 L 59.95,182.00 L 60.00,182.04 L 60.96,183.00 L 61.00,183.03 L 61.97,184.00 L 62.00,184.03 L 62.97,185.00 L 63.00,185.02 L 63.98,186.00 L 64.00,186.02 L 64.98,187.00 L 65.00,187.02 L 65.98,188.00 L 66.00,188.02 L 66.98,189.00 L 67.00,189.01 L 67.99,190.00 L 68.00,190.01 L 68.99,191.00 L 69.00,191.01 L 69.99,192.00 L 70.00,192.01 L 70.99,193.00 L 71.00,193.01 L 71.99,194.00 L 72.00,194.01 L 72.99,195.00 L 73.00,195.01 L 73.99,196.00 L 74.00,196.01 L 74.99,197.00 L 75.00,197.01 L 75.99,198.00 L 76.00,198.01 L 76.99,199.00 L 77.00,199.01 L 77.99,200.00 L 78.00,200.01 L 78.99,201.00 L 79.00,201.01 L 79.99,202.00 L 80.00,202.01 L 80.99,203.00 L 81.00,203.01 L 81.99,204.00 L 82.00,204.00 L 83.00,205.00 L 83.00,205.00 L 84.00,206.00 L 84.00,206.00 L 85.00,207.00 L 85.00,207.00 L 86.00,208.00 L 86.00,208.00 L 87.00,209.00 L 87.00,209.00 L 88.00,210.00 L 88.00,210.00 L 89.00,211.00 L 89.00,211.00 L 90.00,211.50 L 90.50,212.00 L 91.00,212.25 L 91.75,213.00 L 92.00,213.25 L 92.75,214.00 L 93.00,214.12 L 93.88,215.00 L 94.00,215.10 L 94.90,216.00 L 95.00,216.07 L 95.93,217.00 L 96.00,217.06 L 96.94,218.00 L 97.00,218.06 L 97.94,219.00 L 98.00,219.04 L 98.96,220.00 L 99.00,220.04 L 99.96,221.00 L 100.00,221.04 L 100.96,222.00 L 101.00,222.03 L 101.97,223.00 L 102.00,223.03 L 102.97,224.00 L 103.00,224.02 L 103.98,225.00 L 104.00,225.02 L 104.98,226.00 L 105.00,226.02 L 105.98,227.00 L 106.00,227.02 L 106.98,228.00 L 107.00,228.01 L 107.99,229.00 L 108.00,229.01 L 108.99,230.00 L 109.00,230.01 L 109.99,231.00 L 110.00,231.01 L 110.99,232.00 L 111.00,232.01 L 111.99,233.00 L 112.00,233.01 L 112.99,234.00 L 113.00,234.01 L 113.99,235.00 L 114.00,235.01 L 114.99,236.00 L 115.00,236.01 L 115.99,237.00 L 116.00,237.01 L 116.99,238.00 L 117.00,238.01 L 117.99,239.00 L 118.00,239.01 L 118.99,240.00 L 119.00,240.01 L 119.99,241.00 L 120.00,241.01 L 120.99,242.00 L 121.00,242.01 L 121.99,243.00 L 122.00,243.00 L 123.00,244.00 L 123.00,244.00 L 124.00,245.00 L 124.00,245.00 L 125.00,246.00 L 125.00,246.00 L 126.00,247.00 L 126.00,247.00 L 127.00,248.00 L 127.00,248.00 L 128.00,249.00 L 128.00,249.00 L 129.00,250.00 L 129.00,250.00 L 130.00,250.50 L 130.50,251.00 L 131.00,251.25 L 131.75,252.00 L 132.00,252.17 L 132.83,253.00 L 133.00,253.12 L 133.88,254.00 L 134.00,254.10 L 134.90,255.00 L 135.00,255.07 L 135.93,256.00 L 136.00,256.06 L 136.94,257.00 L 137.00,257.06 L 137.94,258.00 L 138.00,258.04 L 138.96,259.00 L 139.00,259.04 L 139.96,260.00 L 140.00,260.05 L 140.95,261.00 L 141.00,261.08 L 141.92,262.00 L 142.00,262.50 L 142.50,263.00 L 143.00,264.00 L 143.00,264.01 L 143.99,265.00 L 144.00,265.03 L 144.97,266.00 L 145.00,267.00 L 145.00,267.01 L 145.99,268.00 L 146.00,268.50 L 146.50,269.00 L 146.99,270.00 L 147.00,271.00 L 147.00,271.01 L 147.99,272.00 L 148.00,273.00 L 148.00,273.04 L 148.96,274.00 L 148.99,275.00 L 149.00,276.00 L 149.00,277.00 L 149.00,277.02 L 149.98,278.00 L 149.99,279.00 L 150.00,280.00 L 150.00,281.00 L 150.00,282.00 L 150.00,283.00 L 150.00,284.00 L 150.00,285.00 L 150.00,286.00 L 150.00,287.00 L 150.00,288.00 L 150.00,289.00 L 150.00,290.00 L 149.99,291.00 L 149.99,292.00 L 149.96,293.00 L 149.00,293.96 L 149.00,294.00 L 149.00,295.00 L 149.00,296.00 L 148.99,297.00 L 148.99,298.00 L 148.94,299.00 L 148.00,299.94 L 148.00,300.00 L 148.00,301.00 L 148.00,302.00 L 147.99,303.00 L 147.99,304.00 L 147.88,305.00 L 147.00,305.88 L 147.00,306.00 L 147.00,307.00 L 147.00,308.00 L 146.99,309.00 L 146.98,310.00 L 146.75,311.00 L 146.00,311.75 L 146.00,312.00 L 146.00,313.00 L 146.00,314.00 L 145.99,315.00 L 145.98,316.00 L 145.00,316.98 L 145.00,317.00 L 145.00,318.00 L 145.00,319.00 L 145.00,320.00 L 144.99,321.00 L 144.97,322.00 L 144.00,322.98 L 144.00,323.00 L 144.00,324.00 L 144.00,325.00 L 143.99,326.00 L 143.99,327.00 L 143.96,328.00 L 143.00,328.96 L 143.00,329.00 L 143.00,330.00 L 143.00,331.00 L 142.99,332.00 L 142.99,333.00 L 142.94,334.00 L 142.00,334.94 L 142.00,335.00 L 142.00,336.00 L 142.00,337.00 L 141.99,338.00 L 141.99,339.00 L 141.88,340.00 L 141.00,340.88 L 141.00,341.00 L 141.00,342.00 L 141.00,343.00 L 140.99,344.00 L 140.98,345.00 L 140.50,346.00 L 140.00,346.50 L 140.00,347.00 L 140.00,348.00 L 140.00,349.00 L 139.99,350.00 L 139.98,351.00 L 139.00,351.98 L 139.00,352.00 L 139.00,353.00 L 139.00,354.00 L 139.00,355.00 L 138.99,356.00 L 138.97,357.00 L 138.00,357.97 L 138.00,358.00 L 138.00,359.00 L 138.00,360.00 L 137.99,361.00 L 137.99,362.00 L 137.96,363.00 L 137.00,363.96 L 137.00,364.00 L 137.00,365.00 L 137.00,366.00 L 136.99,367.00 L 136.99,368.00 L 136.93,369.00 L 136.00,369.93 L 136.00,370.00 L 136.00,371.00 L 136.00,372.00 L 135.99,373.00 L 135.99,374.00 L 135.88,375.00 L 135.00,375.88 L 135.00,376.00 L 135.00,377.00 L 135.00,378.00 L 134.99,379.00 L 134.98,380.00 L 134.50,381.00 L 134.00,381.50 L 134.00,382.00 L 134.00,383.00 L 134.00,384.00 L 133.99,385.00 L 133.98,386.00 L 133.00,386.98 L 133.00,387.00 L 133.00,388.00 L 133.00,389.00 L 133.00,390.00 L 132.99,391.00 L 132.97,392.00 L 132.00,392.97 L 132.00,393.00 L 132.00,394.00 L 132.00,395.00 L 131.99,396.00 L 131.99,397.00 L 131.96,398.00 L 131.00,398.96 L 131.00,399.00 L 131.00,400.00 L 131.00,401.00 L 130.99,402.00 L 130.99,403.00 L 130.99,404.00 L 130.99,405.00 L 131.00,406.00 L 131.00,406.01 L 131.99,407.00 L 132.00,407.02 L 132.98,408.00 L 133.00,408.01 L 133.99,409.00 L 134.00,409.00 L 135.00,409.00 L 136.00,409.01 L 137.00,409.01 L 138.00,409.00 L 139.00,409.00 L 139.01,409.00 L 140.00,408.01 L 141.00,408.00 L 141.01,408.00 L 142.00,407.01 L 142.25,407.00 L 143.00,406.25 L 144.00,406.01 L 144.10,406.00 L 145.00,405.10 L 146.00,405.00 L 146.06,405.00 L 147.00,404.06 L 148.00,404.00 L 148.04,404.00 L 149.00,403.04 L 150.00,403.00 L 150.02,403.00 L 151.00,402.02 L 152.00,402.00 L 152.02,402.00 L 153.00,401.02 L 154.00,401.00 L 154.02,401.00 L 155.00,400.02 L 156.00,400.00 L 156.01,400.00 L 157.00,399.01 L 158.00,399.00 L 158.01,399.00 L 159.00,398.01 L 160.00,398.00 L 160.01,398.00 L 161.00,397.01 L 161.50,397.00 L 162.00,396.50 L 163.00,396.01 L 163.25,396.00 L 164.00,395.25 L 165.00,395.01 L 165.08,395.00 L 166.00,394.08 L 167.00,394.00 L 167.05,394.00 L 168.00,393.05 L 169.00,393.00 L 169.03,393.00 L 170.00,392.03 L 171.00,392.00 L 171.02,392.00 L 172.00,391.02 L 173.00,391.00 L 173.02,391.00 L 174.00,390.02 L 175.00,390.00 L 175.01,390.00 L 176.00,389.01 L 177.00,389.00 L 177.01,389.00 L 178.00,388.01 L 179.00,388.00 L 179.01,388.00 L 180.00,387.01 L 181.00,387.00 L 181.01,387.00 L 182.00,386.01 L 182.25,386.00 L 183.00,385.25 L 184.00,385.01 L 184.10,385.00 L 185.00,384.10 L 186.00,384.00 L 186.05,384.00 L 187.00,383.05 L 188.00,383.00 L 188.03,383.00 L 189.00,382.03 L 190.00,382.00 L 190.02,382.00 L 191.00,381.02 L 192.00,381.00 L 192.01,381.00 L 193.00,380.01 L 194.00,380.00 L 194.01,380.00 L 195.00,379.01 L 196.00,379.00 L 196.01,379.00 L 197.00,378.01 L 198.00,378.00 L 198.01,378.00 L 199.00,377.01 L 200.00,377.00 L 200.01,377.00 L 201.00,376.01 L 201.25,376.00 L 202.00,375.25 L 203.00,375.01 L 203.10,375.00 L 204.00,374.10 L 205.00,374.00 L 205.05,374.00 L 206.00,373.05 L 207.00,373.00 L 207.04,373.00 L 208.00,372.04 L 209.00,372.00 L 209.03,372.00 L 210.00,371.02 L 211.00,371.00 L 211.02,371.00 L 212.00,370.02 L 213.00,370.00 L 213.01,370.00 L 214.00,369.01 L 215.00,369.00 L 215.01,369.00 L 216.00,368.01 L 217.00,368.00 L 217.01,368.00 L 218.00,367.01 L 219.00,367.00 L 219.01,367.00 L 220.00,366.01 L 220.25,366.00 L 221.00,365.25 L 222.00,365.01 L 222.10,365.00 L 223.00,364.10 L 224.00,364.00 L 224.08,364.00 L 225.00,363.08 L 226.00,363.00 L 226.04,363.00 L 227.00,362.04 L 228.00,362.00 L 228.03,362.00 L 229.00,361.03 L 230.00,361.00 L 230.02,361.00 L 231.00,360.02 L 232.00,360.00 L 232.01,360.00 L 233.00,359.01 L 234.00,359.00 L 234.01,359.00 L 235.00,358.01 L 236.00,358.00 L 236.01,358.00 L 237.00,357.01 L 238.00,357.00 L 238.01,357.00 L 239.00,356.01 L 240.00,356.00 L 240.01,356.00 L 241.00,355.01 L 242.00,355.00 L 242.01,355.00 L 243.00,354.01 L 244.00,354.00 L 245.00,354.00 L 245.01,354.00 L 246.00,353.01 L 247.00,353.00 L 248.00,353.00 L 249.00,353.00 L 249.02,353.00 L 250.00,352.02 L 251.00,352.01 L 252.00,352.01 L 253.00,352.00 L 254.00,352.00 L 255.00,352.00 L 256.00,352.00 L 257.00,352.00 L 258.00,352.00 L 259.00,352.01 L 260.00,352.01 L 261.00,352.02 L 261.98,353.00 L 262.00,353.00 L 263.00,353.00 L 264.00,353.00 L 265.00,353.01 L 265.99,354.00 L 266.00,354.00 L 267.00,354.00 L 268.00,354.01 L 268.99,355.00 L 269.00,355.00 L 270.00,355.01 L 271.00,355.50 L 271.50,356.00 L 272.00,356.01 L 272.99,357.00 L 273.00,357.00 L 274.00,357.01 L 274.99,358.00 L 275.00,358.00 L 276.00,358.01 L 276.99,359.00 L 277.00,359.00 L 278.00,359.01 L 278.99,360.00 L 279.00,360.00 L 280.00,360.01 L 280.99,361.00 L 281.00,361.00 L 282.00,361.02 L 282.98,362.00 L 283.00,362.00 L 284.00,362.03 L 284.97,363.00 L 285.00,363.00 L 286.00,363.06 L 286.94,364.00 L 287.00,364.00 L 288.00,364.07 L 288.93,365.00 L 289.00,365.00 L 290.00,365.17 L 290.83,366.00 L 291.00,366.01 L 292.00,366.50 L 292.50,367.00 L 293.00,367.01 L 293.99,368.00 L 294.00,368.00 L 295.00,368.01 L 295.99,369.00 L 296.00,369.00 L 297.00,369.01 L 297.99,370.00 L 298.00,370.00 L 299.00,370.01 L 299.99,371.00 L 300.00,371.00 L 301.00,371.02 L 301.98,372.00 L 302.00,372.00 L 303.00,372.03 L 303.97,373.00 L 304.00,373.00 L 305.00,373.04 L 305.96,374.00 L 306.00,374.00 L 307.00,374.06 L 307.94,375.00 L 308.00,375.00 L 309.00,375.17 L 309.83,376.00 L 310.00,376.01 L 311.00,376.50 L 311.50,377.00 L 312.00,377.01 L 312.99,378.00 L 313.00,378.00 L 314.00,378.01 L 314.99,379.00 L 315.00,379.00 L 316.00,379.01 L 316.99,380.00 L 317.00,380.00 L 318.00,380.01 L 318.99,381.00 L 319.00,381.00 L 320.00,381.02 L 320.98,382.00 L 321.00,382.00 L 322.00,382.02 L 322.98,383.00 L 323.00,383.00 L 324.00,383.04 L 324.96,384.00 L 325.00,384.00 L 326.00,384.06 L 326.94,385.00 L 327.00,385.00 L 328.00,385.12 L 328.88,386.00 L 329.00,386.01 L 330.00,386.50 L 330.50,387.00 L 331.00,387.01 L 331.99,388.00 L 332.00,388.00 L 333.00,388.01 L 333.99,389.00 L 334.00,389.00 L 335.00,389.01 L 335.99,390.00 L 336.00,390.00 L 337.00,390.01 L 337.99,391.00 L 338.00,391.00 L 339.00,391.02 L 339.98,392.00 L 340.00,392.00 L 341.00,392.02 L 341.98,393.00 L 342.00,393.00 L 343.00,393.03 L 343.97,394.00 L 344.00,394.00 L 345.00,394.06 L 345.94,395.00 L 346.00,395.00 L 347.00,395.12 L 347.88,396.00 L 348.00,396.00 L 349.00,396.25 L 349.75,397.00 L 350.00,397.01 L 350.99,398.00 L 351.00,398.00 L 352.00,398.01 L 352.99,399.00 L 353.00,399.00 L 354.00,399.01 L 354.99,400.00 L 355.00,400.00 L 356.00,400.01 L 356.99,401.00 L 357.00,401.00 L 358.00,401.02 L 358.98,402.00 L 359.00,402.00 L 360.00,402.02 L 360.98,403.00 L 361.00,403.00 L 362.00,403.04 L 362.96,404.00 L 363.00,404.00 L 364.00,404.06 L 364.94,405.00 L 365.00,405.00 L 366.00,405.10 L 366.90,406.00 L 367.00,406.01 L 368.00,406.25 L 368.75,407.00 L 369.00,407.01 L 369.99,408.00 L 370.00,408.00 L 371.00,408.01 L 371.99,409.00 L 372.00,409.00 L 373.00,409.00 L 374.00,409.01 L 375.00,409.01 L 376.00,409.00 L 377.00,409.00 L 377.01,409.00 Z"/><path d="M 0.00,312.06 L 0.00,312.00 L 0.04,311.00 L 1.00,310.04 L 1.01,310.00 L 2.00,309.01 L 2.00,309.00 L 3.00,308.00 L 3.00,308.00 L 4.00,307.00 L 4.01,307.00 L 5.00,306.01 L 5.03,306.00 L 6.00,305.03 L 7.00,305.00 L 7.07,305.00 L 8.00,304.07 L 9.00,304.01 L 10.00,304.00 L 10.05,304.00 L 11.00,303.05 L 12.00,303.01 L 13.00,303.00 L 13.06,303.00 L 14.00,302.06 L 15.00,302.01 L 16.00,302.00 L 16.08,302.00 L 17.00,301.08 L 18.00,301.01 L 19.00,301.00 L 19.17,301.00 L 20.00,300.17 L 21.00,300.01 L 22.00,300.00 L 22.25,300.00 L 23.00,299.25 L 24.00,299.01 L 25.00,299.00 L 26.00,299.00 L 26.01,299.00 L 27.00,298.01 L 28.00,298.00 L 29.00,298.00 L 29.01,298.00 L 30.00,297.01 L 31.00,297.00 L 32.00,297.00 L 32.03,297.00 L 33.00,296.03 L 34.00,296.01 L 35.00,296.00 L 36.00,296.00 L 37.00,296.00 L 38.00,296.01 L 39.00,296.01 L 40.00,296.17 L 40.83,297.00 L 41.00,297.00 L 42.00,297.01 L 42.99,298.00 L 43.00,298.00 L 44.00,298.02 L 44.98,299.00 L 45.00,299.01 L 45.99,300.00 L 46.00,300.01 L 46.99,301.00 L 47.00,301.01 L 47.99,302.00 L 48.00,302.06 L 48.94,303.00 L 49.00,304.00 L 49.00,304.05 L 49.95,305.00 L 50.00,306.00 L 50.00,307.00 L 50.00,308.00 L 50.00,308.02 L 50.98,309.00 L 50.99,310.00 L 50.99,311.00 L 50.98,312.00 L 50.00,312.98 L 50.00,313.00 L 50.00,314.00 L 49.99,315.00 L 49.95,316.00 L 49.00,316.95 L 49.00,317.00 L 48.94,318.00 L 48.00,318.94 L 47.99,319.00 L 47.00,319.99 L 46.99,320.00 L 46.00,320.99 L 45.99,321.00 L 45.00,321.99 L 44.97,322.00 L 44.00,322.97 L 43.00,323.00 L 42.99,323.00 L 42.00,323.99 L 41.00,324.00 L 40.93,324.00 L 40.00,324.93 L 39.00,324.99 L 38.00,325.00 L 37.92,325.00 L 37.00,325.92 L 36.00,325.99 L 35.00,326.00 L 34.83,326.00 L 34.00,326.83 L 33.00,326.99 L 32.00,327.00 L 31.75,327.00 L 31.00,327.75 L 30.00,327.99 L 29.00,328.00 L 28.00,328.00 L 27.99,328.00 L 27.00,328.99 L 26.00,329.00 L 25.00,329.00 L 24.99,329.00 L 24.00,329.99 L 23.00,330.00 L 22.00,330.00 L 21.99,330.00 L 21.00,330.99 L 20.00,331.00 L 19.00,331.00 L 18.98,331.00 L 18.00,331.98 L 17.00,332.00 L 16.00,332.00 L 15.00,332.00 L 14.00,332.00 L 13.93,332.00 L 13.00,332.93 L 12.07,332.00 L 12.00,332.00 L 11.00,332.00 L 10.00,332.00 L 9.00,332.00 L 8.00,331.97 L 7.03,331.00 L 7.00,331.00 L 6.00,330.98 L 5.02,330.00 L 5.00,329.99 L 4.01,329.00 L 4.00,329.00 L 3.00,328.75 L 2.25,328.00 L 2.00,327.00 L 2.00,326.99 L 1.01,326.00 L 1.00,325.98 L 0.02,325.00 L 0.00,324.00 L 0.00,323.97 Z"/><path d="M 511.00,323.97 L 511.00,324.00 L 510.98,325.00 L 510.00,325.98 L 509.99,326.00 L 509.00,326.99 L 509.00,327.00 L 508.75,328.00 L 508.00,328.75 L 507.00,329.00 L 507.00,329.00 L 506.00,330.00 L 505.98,330.00 L 505.00,330.98 L 504.00,331.00 L 503.98,331.00 L 503.00,331.98 L 502.00,332.00 L 501.00,332.00 L 500.00,332.00 L 499.00,332.00 L 498.97,332.00 L 498.00,332.97 L 497.03,332.00 L 497.00,332.00 L 496.00,332.00 L 495.00,332.00 L 494.00,332.00 L 493.00,331.99 L 492.01,331.00 L 492.00,331.00 L 491.00,331.00 L 490.00,330.99 L 489.01,330.00 L 489.00,330.00 L 488.00,330.00 L 487.00,329.99 L 486.01,329.00 L 486.00,329.00 L 485.00,329.00 L 484.00,328.99 L 483.00,328.50 L 482.50,328.00 L 482.00,328.00 L 481.00,327.99 L 480.00,327.75 L 479.25,327.00 L 479.00,327.00 L 478.00,326.99 L 477.00,326.88 L 476.12,326.00 L 476.00,326.00 L 475.00,325.99 L 474.00,325.83 L 473.17,325.00 L 473.00,325.00 L 472.00,324.99 L 471.00,324.94 L 470.06,324.00 L 470.00,324.00 L 469.00,323.99 L 468.01,323.00 L 468.00,323.00 L 467.00,322.98 L 466.02,322.00 L 466.00,321.99 L 465.01,321.00 L 465.00,320.99 L 464.01,320.00 L 464.00,319.99 L 463.01,319.00 L 463.00,318.93 L 462.07,318.00 L 462.00,317.00 L 462.00,316.96 L 461.04,316.00 L 461.00,315.00 L 461.00,314.00 L 461.00,313.00 L 461.00,312.98 L 460.02,312.00 L 460.01,311.00 L 460.01,310.00 L 460.02,309.00 L 461.00,308.02 L 461.00,308.00 L 461.00,307.00 L 461.00,306.00 L 461.06,305.00 L 462.00,304.06 L 462.00,304.00 L 462.07,303.00 L 463.00,302.07 L 463.01,302.00 L 464.00,301.01 L 464.01,301.00 L 465.00,300.01 L 465.01,300.00 L 466.00,299.01 L 466.03,299.00 L 467.00,298.03 L 468.00,298.00 L 468.01,298.00 L 469.00,297.01 L 470.00,297.00 L 470.25,297.00 L 471.00,296.25 L 472.00,296.01 L 473.00,296.01 L 474.00,296.00 L 475.00,296.00 L 476.00,296.00 L 477.00,296.01 L 478.00,296.04 L 478.96,297.00 L 479.00,297.00 L 480.00,297.00 L 481.00,297.01 L 481.99,298.00 L 482.00,298.00 L 483.00,298.00 L 484.00,298.01 L 485.00,298.50 L 485.50,299.00 L 486.00,299.00 L 487.00,299.01 L 488.00,299.50 L 488.50,300.00 L 489.00,300.00 L 490.00,300.01 L 491.00,300.12 L 491.88,301.00 L 492.00,301.00 L 493.00,301.01 L 494.00,301.12 L 494.88,302.00 L 495.00,302.00 L 496.00,302.01 L 497.00,302.07 L 497.93,303.00 L 498.00,303.00 L 499.00,303.01 L 500.00,303.06 L 500.94,304.00 L 501.00,304.00 L 502.00,304.01 L 503.00,304.08 L 503.92,305.00 L 504.00,305.00 L 505.00,305.03 L 505.97,306.00 L 506.00,306.01 L 506.99,307.00 L 507.00,307.00 L 508.00,308.00 L 508.00,308.00 L 509.00,309.00 L 509.00,309.01 L 509.99,310.00 L 510.00,310.04 L 510.96,311.00 L 511.00,312.00 L 511.00,312.07 Z"/><path d="M 257.00,508.94 L 256.00,508.99 L 255.00,508.99 L 254.00,508.94 L 253.06,508.00 L 253.00,508.00 L 252.00,508.00 L 251.00,507.99 L 250.00,507.97 L 249.03,507.00 L 249.00,507.00 L 248.00,506.92 L 247.08,506.00 L 247.00,505.99 L 246.01,505.00 L 246.00,504.99 L 245.01,504.00 L 245.00,503.99 L 244.01,503.00 L 244.00,502.98 L 243.02,502.00 L 243.00,501.00 L 243.00,500.99 L 242.01,500.00 L 242.00,499.00 L 242.00,498.50 L 241.50,498.00 L 241.01,497.00 L 241.01,496.00 L 241.00,495.00 L 241.00,494.00 L 241.00,493.00 L 241.00,492.00 L 241.00,491.00 L 241.00,490.00 L 241.00,489.00 L 241.00,488.00 L 241.00,487.00 L 241.00,486.00 L 241.00,485.00 L 241.00,484.00 L 241.00,483.00 L 241.00,482.00 L 241.00,481.00 L 241.00,480.00 L 241.00,479.00 L 241.00,478.00 L 241.00,477.00 L 241.00,476.00 L 241.00,475.00 L 241.00,474.00 L 241.00,473.00 L 241.00,472.00 L 241.00,471.00 L 241.00,470.00 L 241.00,469.00 L 241.01,468.00 L 241.01,467.00 L 241.50,466.00 L 242.00,465.50 L 242.00,465.00 L 242.01,464.00 L 243.00,463.01 L 243.00,463.00 L 243.02,462.00 L 244.00,461.02 L 244.01,461.00 L 245.00,460.01 L 245.01,460.00 L 246.00,459.01 L 246.01,459.00 L 247.00,458.01 L 247.05,458.00 L 248.00,457.05 L 249.00,457.00 L 249.03,457.00 L 250.00,456.03 L 251.00,456.00 L 252.00,456.00 L 253.00,456.00 L 253.03,456.00 L 254.00,455.03 L 255.00,455.01 L 256.00,455.01 L 257.00,455.03 L 257.97,456.00 L 258.00,456.00 L 259.00,456.00 L 260.00,456.00 L 261.00,456.03 L 261.97,457.00 L 262.00,457.00 L 263.00,457.04 L 263.96,458.00 L 264.00,458.01 L 264.99,459.00 L 265.00,459.01 L 265.99,460.00 L 266.00,460.01 L 266.99,461.00 L 267.00,461.02 L 267.98,462.00 L 268.00,463.00 L 268.00,463.01 L 268.99,464.00 L 269.00,465.00 L 269.00,465.50 L 269.50,466.00 L 269.99,467.00 L 269.99,468.00 L 270.00,469.00 L 270.00,470.00 L 270.00,471.00 L 270.00,472.00 L 270.00,473.00 L 270.00,474.00 L 270.00,475.00 L 270.00,476.00 L 270.00,477.00 L 270.00,478.00 L 270.00,479.00 L 270.00,480.00 L 270.00,481.00 L 270.00,482.00 L 270.00,483.00 L 270.00,484.00 L 270.00,485.00 L 270.00,486.00 L 270.00,487.00 L 270.00,488.00 L 270.00,489.00 L 270.00,490.00 L 270.00,491.00 L 270.00,492.00 L 270.00,493.00 L 270.00,494.00 L 270.00,495.00 L 269.99,496.00 L 269.99,497.00 L 269.50,498.00 L 269.00,498.50 L 269.00,499.00 L 268.99,500.00 L 268.00,500.99 L 268.00,501.00 L 267.98,502.00 L 267.00,502.98 L 266.99,503.00 L 266.00,503.99 L 265.99,504.00 L 265.00,504.99 L 264.99,505.00 L 264.00,505.99 L 263.94,506.00 L 263.00,506.94 L 262.00,507.00 L 261.97,507.00 L 261.00,507.97 L 260.00,507.99 L 259.00,508.00 L 258.00,508.00 L 257.94,508.00 L 257.00,508.94 Z"/>
  </g>
</svg>